<?xml version="1.0" standalone="no"?>
<!DOCTYPE svg PUBLIC "-//W3C//DTD SVG 20010904//EN"
 "http://www.w3.org/TR/2001/REC-SVG-20010904/DTD/svg10.dtd">
<svg version="1.0" xmlns="http://www.w3.org/2000/svg"
 width="2960.000000pt" height="2960.000000pt" viewBox="0 0 2960.000000 2960.000000"
 preserveAspectRatio="xMidYMid meet">
<metadata>
Created by potrace 1.14, written by Peter Selinger 2001-2017
</metadata>
<g transform="translate(0.000000,2960.000000) scale(0.100000,-0.100000)"
fill="#000000" stroke="none">
<path d="M14670 29551 c-182 -70 -227 -95 -262 -149 -35 -54 -12 -133 46 -157
41 -17 94 -6 177 35 86 44 160 60 274 60 114 0 157 -15 223 -75 71 -64 98
-147 71 -223 -18 -52 -49 -64 -190 -73 -352 -23 -573 -129 -663 -318 -28 -60
-31 -75 -31 -166 0 -92 3 -106 32 -167 57 -122 159 -202 298 -238 143 -37 285
-20 447 51 81 35 70 36 218 -16 64 -23 79 -25 111 -16 43 13 65 42 78 103 5
24 11 243 11 488 2 383 0 453 -14 503 -50 180 -167 306 -350 378 -66 26 -81
28 -211 28 l-140 0 -125 -48z m477 -844 c43 -23 63 -64 63 -132 0 -101 -49
-163 -192 -240 -68 -37 -79 -40 -153 -40 -71 0 -88 4 -145 32 -83 42 -103 70
-108 150 -7 100 44 181 138 221 76 32 341 38 397 9z"/>
<path d="M17803 29443 c-33 -6 -86 -71 -134 -163 -54 -104 -77 -120 -177 -120
-84 0 -106 -9 -127 -50 -33 -65 -11 -117 70 -164 52 -31 75 -69 75 -124 0 -49
-141 -501 -211 -677 -41 -105 -50 -138 -50 -189 0 -209 218 -396 461 -396 94
0 149 39 157 112 4 38 1 46 -24 69 -15 15 -53 34 -83 44 -83 26 -148 65 -170
100 -40 65 -31 119 84 456 123 360 134 385 184 406 33 14 49 14 162 -1 170
-22 218 -7 240 75 14 50 -7 102 -48 123 -16 8 -73 29 -125 46 -147 47 -173 93
-127 223 26 75 26 137 -1 171 -34 43 -103 70 -156 59z"/>
<path d="M13183 29429 c-100 -17 -188 -61 -277 -138 -94 -82 -126 -87 -206
-36 -30 19 -69 38 -87 41 -70 13 -143 -57 -143 -137 0 -38 67 -439 141 -844
74 -404 84 -435 146 -461 89 -38 203 10 219 91 4 21 -4 70 -20 135 -14 57 -40
195 -56 309 -17 113 -38 246 -46 295 -21 111 -14 178 25 261 58 126 176 207
306 213 63 3 75 0 123 -28 59 -35 107 -98 147 -198 37 -90 60 -197 95 -432 31
-215 66 -363 100 -430 30 -59 58 -73 131 -68 77 6 106 32 125 114 12 55 12 64
-16 169 -16 60 -43 202 -60 315 -68 442 -116 578 -248 702 -109 102 -262 151
-399 127z"/>
<path d="M16375 29406 c-98 -19 -178 -59 -239 -121 -112 -114 -151 -269 -100
-395 44 -105 109 -166 367 -340 156 -104 190 -143 190 -214 0 -57 -41 -128
-95 -163 -32 -22 -56 -28 -110 -31 -83 -5 -142 14 -296 94 -133 70 -175 70
-234 -1 -64 -75 67 -221 250 -279 349 -110 667 -8 763 244 31 79 36 165 14
231 -41 123 -111 194 -341 346 -174 114 -219 153 -230 199 -17 67 28 158 92
189 93 44 199 28 365 -56 93 -46 130 -49 166 -13 23 23 25 31 21 85 -6 79 -27
105 -124 154 -139 70 -318 98 -459 71z"/>
<path d="M19015 29163 c-62 -16 -95 -77 -95 -173 0 -52 4 -64 30 -94 58 -66
186 -68 250 -4 35 35 54 98 45 147 -16 85 -133 148 -230 124z"/>
<path d="M11228 28891 c-123 -40 -230 -132 -304 -258 -92 -159 -147 -186 -298
-147 -40 11 -87 15 -138 12 -115 -7 -184 -45 -285 -154 -43 -48 -99 -108 -124
-135 l-46 -49 -89 0 c-107 0 -152 -11 -185 -46 -31 -34 -30 -83 6 -154 15 -30
142 -273 283 -540 175 -329 269 -496 294 -522 70 -70 163 -75 226 -12 55 55
47 94 -81 348 -58 116 -138 267 -178 336 -101 176 -112 202 -111 280 0 84 30
163 90 243 69 90 117 121 200 125 56 3 74 0 112 -20 65 -35 146 -138 224 -285
223 -419 334 -620 358 -644 38 -38 75 -44 133 -22 66 25 90 60 90 131 -1 54
-10 75 -183 407 -199 384 -211 416 -194 523 22 130 97 247 187 288 93 44 181
25 270 -57 54 -50 61 -61 307 -509 104 -190 203 -357 219 -372 34 -32 54 -34
107 -12 85 35 134 117 110 185 -16 45 -222 433 -311 584 -180 307 -269 406
-418 466 -77 30 -197 35 -271 10z"/>
<path d="M18775 28650 c-41 -16 -70 -65 -256 -426 -105 -203 -233 -451 -285
-551 -81 -156 -94 -189 -94 -230 0 -58 18 -86 70 -113 71 -36 155 -20 194 36
14 20 198 377 348 674 48 96 108 211 133 255 52 92 75 161 78 233 2 44 -2 55
-27 81 -42 43 -112 62 -161 41z"/>
<path d="M19568 28092 c-267 -89 -576 -430 -637 -704 -17 -73 -22 -209 -10
-273 24 -134 126 -275 269 -370 151 -100 343 -154 450 -125 122 33 173 188 77
234 -18 8 -82 19 -143 25 -61 6 -131 18 -155 27 -250 97 -277 397 -60 666 160
198 334 297 473 269 108 -23 192 -99 282 -256 60 -104 84 -122 144 -106 21 6
53 27 72 46 31 32 35 42 35 88 0 113 -104 259 -259 361 -132 88 -239 125 -381
132 -80 3 -111 1 -157 -14z"/>
<path d="M9126 27667 c-22 -12 -49 -37 -60 -56 -39 -67 -32 -92 154 -558 195
-488 194 -483 109 -483 -58 0 -78 9 -284 127 -325 186 -574 322 -611 333 -77
23 -153 -18 -189 -102 -13 -33 -14 -42 -1 -72 18 -43 59 -70 286 -191 102 -54
255 -137 340 -185 85 -48 225 -124 310 -169 207 -108 271 -151 361 -240 89
-89 149 -200 173 -321 19 -94 48 -125 109 -117 48 7 104 50 131 102 42 81 45
69 -307 1002 -179 474 -330 870 -336 881 -37 69 -114 90 -185 49z"/>
<path d="M20792 27230 c-74 -16 -150 -57 -211 -115 -69 -65 -105 -129 -120
-207 -14 -76 -2 -143 48 -267 23 -56 59 -147 82 -202 68 -170 62 -240 -28
-303 -64 -44 -143 -48 -213 -10 -75 41 -162 139 -205 231 -20 43 -42 89 -48
102 -20 40 -51 54 -108 49 -40 -4 -58 -12 -82 -37 -30 -29 -32 -36 -32 -99 0
-57 6 -77 35 -132 69 -129 257 -289 419 -354 68 -28 87 -31 181 -31 145 1 200
23 296 119 80 80 111 144 121 251 8 88 -9 152 -82 305 -97 205 -118 313 -72
381 45 68 123 85 221 49 70 -27 123 -79 181 -179 72 -125 115 -151 191 -115
47 22 64 50 64 102 0 138 -215 369 -407 439 -72 26 -170 36 -231 23z"/>
<path d="M7415 26631 c-126 -45 -230 -117 -342 -235 -98 -102 -166 -201 -229
-331 -77 -160 -99 -244 -98 -385 0 -103 3 -125 33 -210 36 -107 84 -199 144
-280 217 -292 523 -487 851 -545 182 -31 277 -15 482 85 234 113 413 296 537
545 109 220 126 356 54 434 -24 25 -535 401 -614 451 -53 34 -89 37 -139 14
-41 -19 -381 -438 -400 -493 -15 -43 -9 -78 20 -109 43 -48 112 -66 157 -41
11 5 45 45 76 87 129 175 182 220 244 207 32 -7 215 -139 292 -211 64 -60 87
-100 87 -152 0 -81 -67 -191 -195 -318 -95 -95 -203 -154 -325 -180 -130 -28
-336 -6 -465 47 -174 73 -382 276 -478 464 -60 120 -76 267 -42 410 44 193
211 385 443 511 118 65 140 81 147 113 9 40 -19 98 -59 122 -39 24 -114 24
-181 0z"/>
<path d="M13460 26530 c-1188 -50 -2315 -469 -3243 -1207 -363 -289 -727 -662
-1001 -1028 -645 -859 -1028 -1879 -1106 -2950 -8 -108 -10 -2416 -8 -8170 l4
-8020 21 -166 c95 -725 250 -1257 538 -1844 343 -699 804 -1293 1400 -1806
927 -797 2103 -1263 3350 -1329 254 -13 2793 -13 3040 0 519 28 991 116 1470
275 270 89 466 170 730 300 419 207 770 438 1135 745 156 131 485 457 617 610
278 323 549 725 744 1105 359 696 561 1444 609 2250 8 127 10 2520 7 8105 -3
7280 -4 7937 -20 8068 -57 498 -125 815 -267 1242 -578 1741 -1986 3092 -3760
3608 -337 98 -694 163 -1115 203 -142 14 -2852 21 -3145 9z m2412 -6635 c2039
-2541 3949 -4921 4245 -5290 585 -728 595 -741 663 -859 297 -517 370 -1113
204 -1666 -23 -77 -112 -302 -134 -340 -5 -8 -33 -57 -62 -108 -221 -388 -601
-718 -1020 -888 -238 -96 -454 -142 -713 -150 -132 -5 -4890 147 -5350 170
l-110 6 -275 -262 c-649 -617 -1241 -1165 -2425 -2243 -618 -562 -1107 -1011
-1554 -1423 l-165 -152 -324 0 c-205 0 -322 4 -320 10 2 5 840 1485 1863 3289
l1860 3280 2335 1 c1284 1 2405 5 2490 9 138 6 160 10 193 30 138 85 105 356
-89 736 -39 77 -1282 2463 -2763 5303 -1480 2839 -2691 5165 -2691 5168 0 2
98 3 217 2 l218 -3 3707 -4620z m-2474 -3209 c514 -130 892 -526 1003 -1049
28 -131 31 -367 6 -503 -99 -541 -517 -970 -1060 -1085 -134 -29 -388 -32
-519 -6 -561 111 -989 549 -1084 1107 -22 132 -15 410 14 526 120 473 445 828
896 979 159 54 243 65 456 61 159 -3 199 -7 288 -30z m7939 -10748 c-7 -466
-45 -805 -138 -1215 l-21 -93 -6282 0 -6283 0 -21 98 c-96 435 -142 861 -142
1312 l0 250 6446 0 6446 0 -5 -352z m-287 -1755 c0 -29 -141 -389 -221 -567
-135 -296 -353 -678 -538 -941 l-98 -140 -5295 -3 -5294 -2 -86 122 c-126 182
-137 200 -235 363 -177 295 -296 532 -412 819 -47 116 -131 341 -131 352 0 2
2770 4 6155 4 3385 0 6155 -3 6155 -7z"/>
<path d="M22835 25801 c-32 -14 -1160 -667 -1460 -845 -162 -95 -184 -164 -83
-258 30 -29 63 -50 83 -54 39 -7 14 -20 368 191 210 125 256 149 298 153 75 7
110 -21 188 -154 166 -283 216 -348 276 -360 66 -12 145 36 160 99 10 39 -29
114 -174 336 -173 263 -175 254 104 419 178 104 236 129 279 118 45 -11 93
-64 151 -167 31 -55 97 -161 145 -234 109 -165 139 -185 216 -149 43 21 64 59
69 129 4 50 1 58 -49 136 -48 76 -279 438 -363 567 -57 89 -123 112 -208 73z"/>
<path d="M22732 24055 c-348 -72 -535 -194 -648 -420 -120 -242 -86 -466 117
-770 114 -171 180 -211 269 -164 49 26 74 65 65 102 -4 13 -28 50 -55 83 -56
69 -141 215 -172 294 -13 34 -23 87 -26 142 -4 77 -2 92 21 140 13 29 41 72
61 95 48 55 151 123 186 123 66 0 87 -38 244 -449 57 -149 116 -290 131 -312
61 -93 174 -102 324 -28 162 80 288 244 326 424 28 135 9 273 -56 405 -52 105
-179 238 -276 288 -143 75 -307 90 -511 47z m394 -275 c163 -80 266 -296 207
-431 -59 -133 -211 -220 -271 -156 -22 23 -160 363 -187 463 -16 54 -16 63 -1
97 31 74 134 86 252 27z"/>
<path d="M6259 23617 c-158 -54 -279 -195 -315 -370 -19 -87 -13 -159 23 -269
27 -85 23 -122 -14 -135 -119 -40 -160 -82 -150 -155 6 -44 27 -72 71 -95 62
-32 1219 -363 1270 -363 82 0 136 62 136 155 0 41 -5 52 -34 80 -28 26 -64 40
-212 84 -674 197 -687 202 -751 276 -20 22 -49 69 -67 105 -27 58 -31 75 -31
155 0 99 17 146 72 196 58 54 89 64 208 64 122 0 141 -5 678 -162 286 -83 302
-85 355 -30 65 67 77 150 29 196 -16 14 -113 49 -283 102 -587 182 -822 222
-985 166z"/>
<path d="M23069 22356 c-219 -39 -363 -108 -485 -233 -132 -135 -174 -290
-124 -454 27 -89 57 -150 105 -214 48 -62 75 -107 75 -123 0 -8 -25 -38 -55
-68 -65 -65 -77 -103 -49 -161 13 -26 33 -45 64 -61 51 -27 47 -27 350 7 190
22 970 84 1255 101 256 15 385 39 488 91 l37 19 0 69 c0 69 -1 70 -40 104 -68
58 -93 60 -317 37 -109 -11 -218 -25 -243 -30 -87 -18 -129 -13 -161 19 -35
35 -36 51 -5 116 77 166 64 367 -35 514 -80 120 -213 207 -384 252 -102 27
-361 35 -476 15z m378 -292 c208 -43 311 -136 321 -290 4 -70 3 -79 -32 -148
-60 -123 -179 -224 -281 -240 -127 -21 -296 -33 -347 -26 -174 24 -318 125
-368 258 -18 46 -21 72 -18 133 8 139 81 225 228 270 192 58 356 72 497 43z"/>
<path d="M6055 21889 c-94 -9 -148 -25 -218 -62 -109 -57 -158 -133 -210 -317
-28 -102 -30 -333 -3 -430 23 -84 59 -160 90 -189 69 -65 216 -27 216 55 0 14
-13 55 -28 92 -44 103 -55 163 -50 267 8 140 61 240 151 284 75 36 195 23 245
-26 23 -24 24 -28 16 -96 -4 -40 -8 -144 -8 -232 0 -141 3 -168 23 -225 65
-188 220 -315 398 -327 174 -12 311 56 405 201 84 130 104 290 54 441 -38 117
-35 164 14 246 54 88 60 126 27 165 -35 42 -71 50 -324 79 -120 14 -310 36
-423 49 -270 32 -293 34 -375 25z m672 -354 c142 -71 229 -250 189 -386 -31
-108 -110 -169 -216 -169 -101 0 -169 49 -201 145 -20 59 -15 350 7 383 36 56
138 68 221 27z"/>
<path d="M23076 20675 c-222 -42 -385 -164 -482 -359 -95 -193 -99 -400 -12
-660 36 -108 59 -148 93 -164 79 -36 195 14 195 84 0 12 -14 47 -31 79 -45 84
-72 218 -67 335 3 82 8 104 36 161 59 124 182 217 298 227 70 6 100 -3 121
-35 16 -24 19 -67 23 -418 l5 -390 25 -49 c43 -85 122 -105 292 -72 165 32
285 94 383 198 104 110 155 243 155 408 0 106 -18 181 -70 285 -87 178 -250
300 -473 356 -111 28 -377 35 -491 14z m591 -330 c67 -34 127 -100 166 -183
28 -59 32 -77 31 -152 0 -72 -4 -93 -26 -135 -47 -89 -133 -151 -227 -162 -59
-7 -103 14 -128 60 -15 27 -18 65 -19 267 -1 147 2 246 9 264 11 31 73 65 118
66 14 0 48 -11 76 -25z"/>
<path d="M5110 20300 c-78 -14 -120 -71 -120 -162 0 -111 84 -172 201 -147 86
19 127 92 108 193 -16 88 -91 133 -189 116z"/>
<path d="M5720 20294 c-113 -19 -150 -47 -158 -122 -6 -65 18 -115 66 -139 34
-17 80 -18 671 -21 688 -3 719 -1 774 48 27 24 32 36 32 72 0 57 -35 112 -89
141 -41 22 -41 22 -656 23 -338 1 -626 0 -640 -2z"/>
<path d="M5620 19718 c-58 -30 -85 -82 -84 -163 0 -65 13 -95 90 -221 59 -96
59 -120 -6 -189 -63 -66 -72 -104 -38 -155 48 -72 18 -69 745 -71 631 -1 653
0 696 19 59 26 81 66 75 138 -5 58 -22 85 -73 113 -26 14 -86 17 -466 21
l-435 5 -76 38 c-138 68 -209 176 -216 327 -4 101 -15 133 -48 149 -41 18
-115 13 -164 -11z"/>
<path d="M22663 19034 c-42 -21 -63 -55 -69 -112 -7 -60 18 -111 66 -134 31
-16 73 -18 410 -18 395 0 473 -6 555 -44 135 -61 195 -162 214 -354 5 -61 14
-99 24 -109 38 -38 160 -32 206 10 56 52 76 152 46 236 -8 22 -33 74 -57 113
-57 96 -58 136 -6 197 54 63 64 101 41 148 -10 20 -31 46 -46 57 -28 21 -39
21 -690 23 -588 3 -666 1 -694 -13z"/>
<path d="M5928 18480 c-124 -21 -211 -64 -280 -138 -94 -101 -122 -194 -122
-407 1 -231 42 -370 137 -464 55 -53 112 -65 164 -32 45 28 50 65 19 143 -61
156 -79 230 -80 328 0 85 3 101 27 153 47 95 122 139 239 141 125 2 127 -2
147 -319 11 -173 28 -232 95 -322 53 -72 131 -145 182 -171 121 -62 314 -52
427 20 98 63 196 215 217 338 15 87 -4 180 -65 307 -25 52 -45 107 -45 121 0
14 16 58 35 98 58 120 44 177 -50 203 -47 13 -972 13 -1047 1z m728 -301 c107
-51 175 -159 182 -288 3 -41 -1 -91 -7 -113 -15 -48 -75 -116 -118 -135 -42
-17 -127 -17 -161 1 -99 52 -162 200 -165 386 -2 109 11 141 66 166 45 20 144
12 203 -17z"/>
<path d="M22855 18097 c-74 -28 -137 -71 -192 -130 -52 -56 -79 -108 -98 -189
-29 -125 -15 -245 46 -388 40 -94 41 -146 6 -221 -30 -63 -35 -124 -12 -156 8
-12 37 -29 64 -38 44 -14 106 -16 543 -12 435 3 500 5 553 21 255 76 354 228
355 548 0 221 -56 388 -157 465 -30 23 -46 28 -96 28 -51 0 -62 -3 -79 -25
-28 -34 -20 -77 38 -225 78 -199 73 -327 -19 -431 -102 -116 -278 -127 -323
-19 -9 22 -14 71 -14 137 -1 148 -30 304 -74 393 -100 203 -348 313 -541 242z
m230 -291 c60 -27 109 -81 143 -155 23 -51 25 -64 24 -198 -2 -93 -6 -150 -14
-163 -19 -30 -67 -45 -143 -45 -84 1 -119 17 -186 86 -156 160 -155 394 2 473
65 32 109 33 174 2z"/>
<path d="M5669 17190 c-90 -27 -109 -72 -110 -263 0 -78 -4 -173 -9 -212 -21
-156 -23 -248 -6 -315 27 -109 81 -206 155 -280 142 -142 311 -181 534 -124
124 32 180 29 292 -17 111 -45 177 -46 262 -1 87 45 146 44 228 -3 116 -68
146 -79 226 -83 67 -4 85 -1 138 23 119 54 215 187 263 362 31 114 31 333 0
457 -53 213 -172 376 -312 425 -197 69 -406 -13 -499 -197 -62 -123 -90 -286
-91 -525 0 -124 -5 -143 -48 -189 -35 -38 -84 -38 -117 -2 -20 22 -25 37 -25
78 1 28 7 69 16 91 91 249 -93 550 -375 615 -38 9 -94 11 -179 7 -150 -8 -165
-2 -216 81 -19 32 -47 64 -61 70 -29 13 -30 13 -66 2z m1622 -315 c40 -21 85
-93 112 -180 53 -171 1 -445 -96 -506 -25 -16 -45 -19 -93 -17 -84 5 -148 44
-183 113 -25 48 -26 54 -26 255 1 186 3 209 22 251 43 95 166 134 264 84z
m-1076 -132 c90 -47 125 -113 125 -230 0 -90 -19 -140 -70 -191 -58 -59 -83
-67 -206 -67 -106 0 -113 1 -160 30 -37 23 -56 45 -78 87 -25 51 -28 66 -28
152 1 193 64 249 272 243 83 -2 113 -7 145 -24z"/>
<path d="M23942 16740 c-41 -10 -78 -43 -87 -78 -3 -15 -15 -46 -26 -69 -35
-72 -41 -73 -416 -73 -359 0 -551 -15 -629 -49 -24 -11 -69 -43 -99 -72 -134
-127 -178 -305 -111 -443 34 -70 74 -106 122 -112 84 -10 123 38 133 163 18
216 78 237 634 231 250 -3 286 -5 310 -21 46 -30 56 -57 66 -177 10 -125 22
-152 82 -182 112 -58 189 34 189 227 0 126 34 155 182 155 133 0 178 34 178
133 0 102 -43 135 -190 147 -99 8 -151 26 -166 57 -4 10 -15 42 -23 72 -23 77
-74 108 -149 91z"/>
<path d="M4993 15602 c-28 -10 -67 -31 -87 -46 -35 -26 -36 -30 -36 -90 0 -68
12 -87 75 -119 74 -37 125 -39 1085 -35 746 3 942 7 970 17 78 30 119 101 100
172 -12 42 -41 72 -95 96 -37 17 -100 18 -1000 20 -902 2 -963 2 -1012 -15z"/>
<path d="M24433 15554 c-36 -8 -80 -57 -92 -101 -17 -62 2 -134 44 -171 38
-34 100 -46 158 -33 82 19 121 67 121 145 0 62 -26 112 -71 139 -32 18 -119
30 -160 21z"/>
<path d="M22645 15523 c-61 -16 -90 -66 -83 -144 6 -58 40 -101 97 -121 28
-10 182 -13 671 -13 621 0 636 0 674 21 53 27 78 75 73 137 -5 58 -32 98 -78
114 -25 9 -205 12 -684 11 -357 0 -659 -3 -670 -5z"/>
<path d="M23050 14895 c-141 -29 -250 -85 -340 -175 -215 -214 -248 -598 -74
-861 142 -214 394 -332 714 -331 164 0 285 27 412 94 323 168 442 570 271 917
-28 56 -59 97 -118 157 -113 114 -214 166 -383 200 -94 18 -391 17 -482 -1z
m495 -299 c178 -49 273 -149 296 -314 25 -174 -40 -316 -172 -380 -98 -48
-194 -65 -354 -65 -136 -1 -158 2 -230 26 -135 44 -214 106 -263 207 -24 50
-27 66 -27 165 0 96 3 116 24 158 46 94 156 179 272 212 73 20 366 14 454 -9z"/>
<path d="M5615 14856 c-16 -7 -41 -25 -54 -39 -47 -51 -12 -164 62 -205 29
-15 79 -18 477 -22 l445 -5 58 -29 c72 -35 163 -123 201 -195 21 -39 30 -73
33 -120 4 -58 2 -72 -24 -121 -31 -59 -92 -109 -161 -132 -26 -8 -182 -13
-507 -17 -465 -6 -471 -6 -517 -29 -25 -13 -53 -34 -62 -47 -47 -72 -20 -176
56 -217 43 -23 45 -23 413 -23 491 1 643 20 815 102 102 49 198 144 229 227
57 153 27 303 -97 495 -23 35 -42 74 -42 86 0 24 30 55 76 78 84 43 85 156 1
207 -31 19 -55 20 -702 20 -536 -1 -676 -3 -700 -14z"/>
<path d="M6351 13334 c-112 -30 -192 -86 -303 -213 -41 -48 -50 -53 -76 -48
-16 3 -66 31 -111 61 -103 71 -195 101 -306 100 -233 -2 -433 -167 -495 -408
-16 -63 -19 -119 -22 -373 -3 -282 -2 -300 17 -337 13 -26 34 -47 60 -60 39
-21 53 -21 929 -24 979 -3 962 -4 1020 57 27 28 30 39 38 133 15 189 13 454
-6 552 -58 304 -216 499 -452 560 -76 20 -220 20 -293 0z m281 -316 c96 -29
188 -160 210 -302 14 -89 -2 -298 -26 -344 -25 -49 -53 -54 -318 -56 -341 -2
-338 -4 -338 256 0 177 15 259 62 331 34 52 94 94 167 113 59 16 193 17 243 2z
m-959 -103 c152 -39 233 -151 244 -336 12 -192 -15 -251 -120 -264 -80 -10
-426 9 -460 25 -16 8 -34 25 -42 39 -33 66 -26 243 15 353 57 152 201 225 363
183z"/>
<path d="M22703 13180 c-74 -17 -113 -69 -113 -149 0 -51 16 -86 49 -108 24
-16 68 -18 486 -23 533 -6 494 2 615 -120 148 -148 172 -303 61 -410 -85 -83
-87 -84 -631 -90 -432 -5 -478 -7 -508 -23 -88 -48 -97 -179 -19 -264 l20 -23
441 0 c378 1 444 3 461 16 14 10 31 13 55 9 20 -3 67 -1 105 5 245 38 420 258
402 505 -6 86 -33 159 -92 249 -59 91 -59 115 3 197 42 57 47 69 47 117 0 46
-4 57 -28 77 -15 13 -44 29 -65 34 -43 13 -1238 13 -1289 1z"/>
</g>
</svg>
