<?xml version="1.0" encoding="UTF-8"?>
<svg version="1.1" xmlns="http://www.w3.org/2000/svg" width="4111" height="1642">
<path d="M0 0 C1.20471954 -0.00705963 2.40943909 -0.01411926 3.65066528 -0.02139282 C7.52105749 -0.0389183 11.39128813 -0.04537837 15.26171875 -0.046875 C16.25261946 -0.04731686 16.25261946 -0.04731686 17.26353836 -0.04776764 C37.66323079 -0.04923675 57.73164534 0.25981147 77.94921875 3.203125 C78.99067047 3.35231384 78.99067047 3.35231384 80.05316162 3.5045166 C127.49788944 10.32910953 174.06238528 22.5452772 217.52783203 43.06445312 C220.02359763 44.23810212 222.53027273 45.38573611 225.0390625 46.53125 C253.03404137 59.43380952 279.3063858 75.72403961 303.94921875 94.203125 C304.56120117 94.66203125 305.17318359 95.1209375 305.80371094 95.59375 C316.09735784 103.349628 326.09368983 111.41532001 335.625 120.09375 C337.6696421 121.94939157 339.73706024 123.77068876 341.82421875 125.578125 C345.39047646 128.696766 348.93069919 131.84329068 352.44921875 135.015625 C353.26108643 135.73661377 353.26108643 135.73661377 354.08935547 136.47216797 C355.41464358 137.67453081 356.68705896 138.93465441 357.94921875 140.203125 C357.94921875 140.863125 357.94921875 141.523125 357.94921875 142.203125 C354.76162403 140.99629902 351.6784805 139.62443092 348.59765625 138.171875 C317.91178545 123.74762518 286.32933167 114.04157776 252.94921875 108.203125 C252.06975586 108.04859863 251.19029297 107.89407227 250.28417969 107.73486328 C196.77456378 98.6669928 141.60273583 103.46766236 88.94921875 115.203125 C87.95205841 115.42518616 87.95205841 115.42518616 86.93475342 115.6517334 C7.10352348 133.59172617 -69.47606282 172.61132263 -132.29785156 224.75439453 C-134.80089449 226.82306539 -137.33498501 228.85294715 -139.86328125 230.890625 C-144.46851481 234.65917198 -148.87951659 238.61100804 -153.25 242.6484375 C-155.39770666 244.60743353 -157.56769795 246.5162996 -159.76855469 248.41381836 C-163.78813592 251.92750408 -167.5993205 255.6064468 -171.3671875 259.38671875 C-172.0273436 260.04591812 -172.68749969 260.70511749 -173.36766052 261.3842926 C-174.75113631 262.76709335 -176.13337208 264.15113576 -177.5144043 265.53637695 C-179.60809794 267.63542843 -181.70707999 269.7290844 -183.80664062 271.82226562 C-185.16047696 273.17676286 -186.514003 274.53157031 -187.8671875 275.88671875 C-188.79248009 276.80897499 -188.79248009 276.80897499 -189.73646545 277.74986267 C-194.03689346 282.07310036 -198.08157829 286.57514294 -202.05078125 291.203125 C-202.74062859 292.00158592 -202.74062859 292.00158592 -203.44441223 292.81617737 C-229.5185368 323.07703724 -252.16368407 356.00574171 -271.05078125 391.203125 C-271.51838867 392.06599121 -271.98599609 392.92885742 -272.46777344 393.81787109 C-284.55950365 416.18797052 -294.51489182 439.25958258 -303.05078125 463.203125 C-303.36499023 464.07324219 -303.67919922 464.94335938 -304.00292969 465.83984375 C-316.46940116 500.59162976 -322.15017391 536.54999586 -325.05078125 573.203125 C-304.04890727 564.26999708 -284.78607809 553.20891729 -266.05078125 540.203125 C-265.45813477 539.79416992 -264.86548828 539.38521484 -264.25488281 538.96386719 C-256.5143802 533.60300095 -249.02855894 527.92282943 -241.55078125 522.203125 C-238.05285798 519.53372262 -234.5524671 516.86758896 -231.05078125 514.203125 C-230.37450684 513.68621094 -229.69823242 513.16929687 -229.00146484 512.63671875 C-207.983026 496.66292771 -184.82111361 488.52158885 -158.13671875 491.6640625 C-140.50460202 494.81928339 -126.39402593 503.15498522 -111.25195312 512.27685547 C-108.08326171 514.18358024 -104.90453143 516.07240481 -101.72265625 517.95703125 C-88.89512494 525.57465113 -76.24760432 533.44017553 -63.69970703 541.50878906 C-61.13681564 543.14809471 -58.56321131 544.76873148 -55.984375 546.3828125 C-32.87018683 560.88354963 -10.15199711 576.19746954 11.94921875 592.203125 C12.71186035 592.75226562 13.47450195 593.30140625 14.26025391 593.8671875 C24.51398722 601.26372363 34.45912379 608.84771531 43.94921875 617.203125 C44.89796875 618.0178125 45.84671875 618.8325 46.82421875 619.671875 C54.96553988 626.77186436 59.70706848 632.88311533 60.69921875 644.015625 C61.52607147 658.99846151 57.97814266 673.36021683 54.43920898 687.80065918 C53.17119417 692.98839183 51.94309352 698.18554513 50.71484375 703.3828125 C50.47258057 704.40677124 50.23031738 705.43072998 49.98071289 706.48571777 C41.93659118 740.65189236 38.48736591 774.17598846 37.94921875 809.203125 C90.17505893 790.17120039 138.41645192 763.16210664 181.20507812 727.64306641 C183.66088612 725.61558102 186.15244743 723.63306804 188.63671875 721.640625 C194.42652626 716.89957004 199.87374352 711.81486653 205.33496094 706.70410156 C206.88592873 705.26197361 208.44913991 703.83498894 210.01953125 702.4140625 C219.16966539 694.13317625 228.17492981 685.65823627 236.18359375 676.25 C238.34355295 673.74597651 240.58409868 671.32314802 242.82421875 668.890625 C247.74499177 663.4881498 252.37622365 657.90074919 256.94921875 652.203125 C257.87311324 651.07113714 258.79762165 649.93965013 259.72265625 648.80859375 C310.33551709 586.63813431 347.1608686 510.69643616 360.19921875 431.390625 C360.35044189 430.47442383 360.50166504 429.55822266 360.6574707 428.61425781 C363.29633197 411.49071536 364.32777693 394.38771405 364.26171875 377.078125 C364.26089294 376.15233643 364.26006714 375.22654785 364.25921631 374.27270508 C364.21978326 354.9513414 362.55881054 336.20097654 358.94921875 317.203125 C305.53294463 315.3775055 258.5882644 344.20037807 220.35546875 379.01953125 C218.70141669 380.52052979 217.03390205 382.00678409 215.35546875 383.48046875 C210.75913593 387.52994872 206.53367983 391.6324882 202.5859375 396.31640625 C200.9930615 398.1525855 199.32409719 399.82981533 197.57421875 401.515625 C193.8414934 405.19015641 190.59534949 409.19798508 187.31640625 413.27734375 C185.01024479 416.12769842 182.64127779 418.91396973 180.26171875 421.703125 C153.25328978 454.21250505 131.32946356 491.31633562 111.5703125 528.54296875 C110.7649707 530.05141357 110.7649707 530.05141357 109.94335938 531.59033203 C108.93335699 533.48836348 107.93276189 535.3914423 106.94335938 537.30029297 C103.88421231 543.04544079 101.21982612 546.7811218 95.07421875 549.453125 C88.44913081 551.04314611 82.93554912 550.33817838 76.94921875 547.203125 C74.26489263 544.77857238 73.12189832 542.02342033 72.765625 538.39672852 C73.65942223 527.71751561 81.19322723 515.96661406 85.70223999 506.36096191 C87.8432294 501.79761178 89.96769514 497.22657228 92.09375 492.65625 C92.5155806 491.75018005 92.93741119 490.84411011 93.37202454 489.9105835 C99.03529236 477.7358356 104.54265373 465.49414538 109.94921875 453.203125 C110.26652954 452.48213623 110.58384033 451.76114746 110.9107666 451.01831055 C136.53694313 398.35181976 136.53694313 398.35181976 135.2734375 341.52734375 C129.06450712 325.94091381 119.99223363 314.7746824 104.94921875 307.203125 C79.66541833 297.19437958 52.10396201 303.05100075 27.90527344 313.52001953 C4.64258967 323.94489138 -16.7379097 336.8459677 -37.05078125 352.203125 C-37.66131348 352.66203125 -38.2718457 353.1209375 -38.90087891 353.59375 C-53.6432951 364.69853317 -67.85710302 376.5632098 -81.5 388.99609375 C-85.0322273 391.74535882 -88.77115204 391.56580544 -93.05078125 391.203125 C-98.77201815 388.28641599 -102.02455899 384.28179178 -104.05078125 378.203125 C-104.2890625 376.22265625 -104.2890625 376.22265625 -104.36328125 374.015625 C-104.40066406 373.30019531 -104.43804688 372.58476563 -104.4765625 371.84765625 C-103.36823566 364.96382808 -99.22846201 359.78361727 -94.359375 355.05078125 C-93.81402603 354.50634872 -93.26867706 353.9619162 -92.70680237 353.40098572 C-91.55756012 352.25774355 -90.40350298 351.11932277 -89.24487305 349.9855957 C-87.50654719 348.28351013 -85.78449763 346.56624027 -84.06445312 344.84570312 C-78.09719048 338.91695243 -72.01200948 333.34580189 -65.42993164 328.10083008 C-62.90960003 326.09051324 -60.48944831 323.99397995 -58.07543945 321.85888672 C-36.96139706 303.25689132 -12.51922779 287.06924276 11.94921875 273.203125 C12.6158252 272.82317383 13.28243164 272.44322266 13.96923828 272.05175781 C19.26434927 269.04358388 24.59806079 266.11020798 29.94921875 263.203125 C30.75601074 262.76210449 31.56280273 262.32108398 32.39404297 261.86669922 C79.51823579 236.21050242 131.67059431 218.84563231 184.94921875 212.203125 C185.87089844 212.08598145 186.79257812 211.96883789 187.7421875 211.84814453 C264.42261046 202.53971656 345.58470345 222.30165378 407.03125 269.57421875 C413.95517365 275.13118751 420.50908218 281.09802444 426.94921875 287.203125 C427.45098633 287.67621094 427.95275391 288.14929688 428.46972656 288.63671875 C436.46683507 296.22754329 443.37957343 304.35694208 449.94921875 313.203125 C450.59503906 314.06574951 450.59503906 314.06574951 451.25390625 314.94580078 C503.45597171 385.00334545 506.8419884 473.85867194 495.13671875 557.37890625 C483.39864648 636.81908626 452.02966471 712.54020359 402.94921875 776.203125 C402.5320459 776.74646484 402.11487305 777.28980469 401.68505859 777.84960938 C391.88061251 790.59284644 381.47034808 802.76011673 370.51074219 814.52392578 C368.73708196 816.43124833 366.97242987 818.34674792 365.20703125 820.26171875 C363.89232237 821.680054 362.57722099 823.09802555 361.26171875 824.515625 C360.35329224 825.50248291 360.35329224 825.50248291 359.42651367 826.50927734 C355.73490516 830.46853873 351.89465355 834.11069469 347.765625 837.61254883 C345.96181254 839.19209697 344.29568261 840.84822905 342.63671875 842.578125 C339.0043376 846.26777342 335.04117825 849.46329797 331.0078125 852.703125 C328.90068724 854.42542406 326.83831072 856.15741186 324.796875 857.953125 C250.49259031 923.30694549 150.53359466 962.84514986 51.16748047 956.6875 C1.69539576 953.15325373 -49.45789832 938.51125186 -88.05078125 906.203125 C-88.63102051 905.72294922 -89.21125977 905.24277344 -89.80908203 904.74804688 C-103.3912208 893.45543774 -116.34039459 881.29675654 -127.05078125 867.203125 C-127.4674707 866.66284668 -127.88416016 866.12256836 -128.31347656 865.56591797 C-152.78707889 833.72881385 -168.14708825 797.48328769 -176.05078125 758.203125 C-179.84266771 758.203125 -182.19153482 759.44602055 -185.67578125 760.953125 C-224.88257106 776.88354237 -266.11075589 764.94898202 -303.49047852 749.23950195 C-307.06201996 747.65962706 -310.56124275 745.9558152 -314.05078125 744.203125 C-315.03014648 743.71553711 -316.00951172 743.22794922 -317.01855469 742.72558594 C-340.72277263 730.85563278 -340.72277263 730.85563278 -351.05078125 723.203125 C-351.65116211 722.76677734 -352.25154297 722.33042969 -352.87011719 721.88085938 C-374.03634106 706.49292092 -394.45247194 689.15262069 -409.87255859 667.83007812 C-411.06478252 666.1837913 -412.28391547 664.56033621 -413.5078125 662.9375 C-466.10140139 592.32573714 -476.83932724 501.02408334 -464.65640259 415.98739624 C-457.77640505 369.15111014 -444.93774101 324.1430544 -425.05078125 281.203125 C-424.23169694 279.40107525 -423.41268457 277.5989928 -422.59375 275.796875 C-409.76971865 247.91167079 -393.44719742 221.7357142 -375.05078125 197.203125 C-374.591875 196.59114258 -374.13296875 195.97916016 -373.66015625 195.34863281 C-367.98167342 187.812117 -362.10428822 180.44165781 -356.05078125 173.203125 C-355.61040527 172.67638184 -355.1700293 172.14963867 -354.71630859 171.60693359 C-343.81567931 158.61338349 -332.24461055 146.31714187 -320.30218506 134.27929688 C-318.90854544 132.87377511 -317.51890084 131.46429561 -316.12939453 130.0546875 C-310.82521981 124.74375832 -305.3564238 119.83583323 -299.47973633 115.16455078 C-297.21367538 113.334665 -295.06186845 111.43188627 -292.92578125 109.453125 C-219.11733749 43.35211165 -117.51327386 8.78266964 0 0 Z " fill="#2495D6" transform="translate(807.05078125,336.796875)"/>
<path d="M0 0 C1.20471954 -0.00705963 2.40943909 -0.01411926 3.65066528 -0.02139282 C7.52105749 -0.0389183 11.39128813 -0.04537837 15.26171875 -0.046875 C16.25261946 -0.04731686 16.25261946 -0.04731686 17.26353836 -0.04776764 C37.66323079 -0.04923675 57.73164534 0.25981147 77.94921875 3.203125 C78.99067047 3.35231384 78.99067047 3.35231384 80.05316162 3.5045166 C127.49788944 10.32910953 174.06238528 22.5452772 217.52783203 43.06445312 C220.02359763 44.23810212 222.53027273 45.38573611 225.0390625 46.53125 C253.03404137 59.43380952 279.3063858 75.72403961 303.94921875 94.203125 C304.56120117 94.66203125 305.17318359 95.1209375 305.80371094 95.59375 C316.09735784 103.349628 326.09368983 111.41532001 335.625 120.09375 C337.6696421 121.94939157 339.73706024 123.77068876 341.82421875 125.578125 C345.39047646 128.696766 348.93069919 131.84329068 352.44921875 135.015625 C353.26108643 135.73661377 353.26108643 135.73661377 354.08935547 136.47216797 C355.41464358 137.67453081 356.68705896 138.93465441 357.94921875 140.203125 C357.94921875 140.863125 357.94921875 141.523125 357.94921875 142.203125 C354.76162403 140.99629902 351.6784805 139.62443092 348.59765625 138.171875 C317.91178545 123.74762518 286.32933167 114.04157776 252.94921875 108.203125 C252.06975586 108.04859863 251.19029297 107.89407227 250.28417969 107.73486328 C196.77456378 98.6669928 141.60273583 103.46766236 88.94921875 115.203125 C87.95205841 115.42518616 87.95205841 115.42518616 86.93475342 115.6517334 C7.10352348 133.59172617 -69.47606282 172.61132263 -132.29785156 224.75439453 C-134.80089449 226.82306539 -137.33498501 228.85294715 -139.86328125 230.890625 C-144.46851481 234.65917198 -148.87951659 238.61100804 -153.25 242.6484375 C-155.39770666 244.60743353 -157.56769795 246.5162996 -159.76855469 248.41381836 C-163.78813592 251.92750408 -167.5993205 255.6064468 -171.3671875 259.38671875 C-172.0273436 260.04591812 -172.68749969 260.70511749 -173.36766052 261.3842926 C-174.75113631 262.76709335 -176.13337208 264.15113576 -177.5144043 265.53637695 C-179.60809794 267.63542843 -181.70707999 269.7290844 -183.80664062 271.82226562 C-185.16047696 273.17676286 -186.514003 274.53157031 -187.8671875 275.88671875 C-188.79248009 276.80897499 -188.79248009 276.80897499 -189.73646545 277.74986267 C-194.03689346 282.07310036 -198.08157829 286.57514294 -202.05078125 291.203125 C-202.74062859 292.00158592 -202.74062859 292.00158592 -203.44441223 292.81617737 C-229.5185368 323.07703724 -252.16368407 356.00574171 -271.05078125 391.203125 C-271.51838867 392.06599121 -271.98599609 392.92885742 -272.46777344 393.81787109 C-284.55950365 416.18797052 -294.51489182 439.25958258 -303.05078125 463.203125 C-303.36499023 464.07324219 -303.67919922 464.94335938 -304.00292969 465.83984375 C-312.7723003 490.28551723 -318.26640035 515.54126938 -322.05078125 541.203125 C-322.18355469 542.07259766 -322.31632813 542.94207031 -322.453125 543.83789062 C-324.37382683 556.99146105 -324.22492808 570.25276801 -324.23828125 583.515625 C-324.23945953 584.41727386 -324.24063782 585.31892273 -324.24185181 586.24789429 C-324.2394424 602.53936602 -323.68768312 618.43366287 -320.80078125 634.515625 C-320.57825684 635.77181641 -320.35573242 637.02800781 -320.12646484 638.32226562 C-318.28280861 648.45133118 -316.04997449 658.35552902 -313.05078125 668.203125 C-312.68412354 669.42225586 -312.68412354 669.42225586 -312.31005859 670.66601562 C-306.03019556 691.24979238 -297.82965781 711.13631158 -286.05078125 729.203125 C-285.64891602 729.81978027 -285.24705078 730.43643555 -284.83300781 731.07177734 C-276.1733886 744.15191934 -266.26477621 755.59321884 -253.05078125 764.203125 C-255.75883322 765.55715098 -256.83922538 764.88575892 -259.72265625 764.05078125 C-261.16692993 763.63469604 -261.16692993 763.63469604 -262.64038086 763.21020508 C-264.20477905 762.74263794 -264.20477905 762.74263794 -265.80078125 762.265625 C-266.88045166 761.94424561 -267.96012207 761.62286621 -269.07250977 761.29174805 C-312.06812721 748.28971249 -351.55942585 727.46280692 -384.05078125 696.203125 C-384.99123291 695.30352051 -384.99123291 695.30352051 -385.95068359 694.38574219 C-395.14658337 685.54361644 -403.49857428 676.48243538 -411.05078125 666.203125 C-411.87478691 665.10921445 -412.69900474 664.01546369 -413.5234375 662.921875 C-466.53697013 591.64555844 -476.94609974 499.65076514 -464.35693359 413.94873047 C-457.4150374 367.81759386 -444.64683927 323.51493928 -425.05078125 281.203125 C-424.23169694 279.40107525 -423.41268457 277.5989928 -422.59375 275.796875 C-409.76971865 247.91167079 -393.44719742 221.7357142 -375.05078125 197.203125 C-374.591875 196.59114258 -374.13296875 195.97916016 -373.66015625 195.34863281 C-367.98167342 187.812117 -362.10428822 180.44165781 -356.05078125 173.203125 C-355.61040527 172.67638184 -355.1700293 172.14963867 -354.71630859 171.60693359 C-343.81567931 158.61338349 -332.24461055 146.31714187 -320.30218506 134.27929688 C-318.90854544 132.87377511 -317.51890084 131.46429561 -316.12939453 130.0546875 C-310.82521981 124.74375832 -305.3564238 119.83583323 -299.47973633 115.16455078 C-297.21367538 113.334665 -295.06186845 111.43188627 -292.92578125 109.453125 C-219.11733749 43.35211165 -117.51327386 8.78266964 0 0 Z " fill="#6AC885" transform="translate(807.05078125,336.796875)"/>
<path d="M0 0 C3.16869141 1.90672477 6.3474217 3.79554934 9.52929688 5.68017578 C22.35682819 13.29779566 35.0043488 21.16332007 47.55224609 29.23193359 C50.11513749 30.87123924 52.68874182 32.49187601 55.26757812 34.10595703 C78.38176629 48.60669416 101.09995601 63.92061407 123.20117188 79.92626953 C123.96381348 80.47541016 124.72645508 81.02455078 125.51220703 81.59033203 C135.76594034 88.98686816 145.71107692 96.57085984 155.20117188 104.92626953 C156.14992188 105.74095703 157.09867188 106.55564453 158.07617188 107.39501953 C166.217493 114.49500889 170.9590216 120.60625986 171.95117188 131.73876953 C172.77802459 146.72160605 169.23009579 161.08336136 165.69116211 175.52380371 C164.4231473 180.71153636 163.19504664 185.90868966 161.96679688 191.10595703 C161.6034021 192.64189514 161.6034021 192.64189514 161.23266602 194.2088623 C158.13275487 207.37525998 155.39999814 220.57625291 153.20117188 233.92626953 C153.02618164 234.97250488 152.85119141 236.01874023 152.67089844 237.09667969 C147.98794025 266.52513079 146.49062658 300.98153799 154.20117188 329.92626953 C154.43143066 330.83538086 154.66168945 331.74449219 154.89892578 332.68115234 C157.55119293 343.0518549 160.52286621 353.26864121 165.20117188 362.92626953 C165.50361816 363.55952148 165.80606445 364.19277344 166.11767578 364.84521484 C178.05294825 389.54724465 196.41744781 408.8069042 222.41699219 418.77587891 C227.27460483 420.45478723 232.19612355 421.76898843 237.20117188 422.92626953 C238.74224609 423.29365234 238.74224609 423.29365234 240.31445312 423.66845703 C263.84801577 428.21931815 288.70232457 424.06255212 311.40356445 417.41381836 C316.90498687 415.8275412 316.90498687 415.8275412 320.20117188 416.92626953 C243.53779573 449.13345325 153.68794441 456.73466977 75.52246094 424.83300781 C56.66519839 416.93062995 38.91106174 407.07784247 23.20117188 393.92626953 C22.33081299 393.20600586 22.33081299 393.20600586 21.44287109 392.47119141 C7.86073233 381.17858227 -5.08844147 369.01990107 -15.79882812 354.92626953 C-16.21551758 354.38599121 -16.63220703 353.84571289 -17.06152344 353.2890625 C-41.53512577 321.45195838 -56.89513513 285.20643222 -64.79882812 245.92626953 C-68.59071459 245.92626953 -70.93958169 247.16916508 -74.42382812 248.67626953 C-87.95031185 254.17232091 -99.91248748 256.27652692 -114.54882812 256.36376953 C-115.75619629 256.3739209 -116.96356445 256.38407227 -118.20751953 256.39453125 C-129.23546536 256.28761002 -139.97162976 255.4544718 -148.67382812 248.17626953 C-149.21499268 247.72872314 -149.75615723 247.28117676 -150.3137207 246.82006836 C-151.83139286 245.54867809 -153.31651474 244.23871344 -154.79882812 242.92626953 C-155.46527344 242.34748047 -156.13171875 241.76869141 -156.81835938 241.17236328 C-171.79718819 227.17575275 -182.34090716 207.36289315 -190.79882812 188.92626953 C-191.09208984 188.28995605 -191.38535156 187.65364258 -191.6875 186.99804688 C-201.22191006 165.95970219 -206.82482423 143.60298292 -210.79882812 120.92626953 C-211.0334375 119.64236328 -211.26804687 118.35845703 -211.50976562 117.03564453 C-214.65454296 98.53159238 -213.91331596 79.62477427 -213.79882812 60.92626953 C-212.59871094 60.41580078 -211.39859375 59.90533203 -210.16210938 59.37939453 C-190.47834948 50.85535608 -172.39968184 40.14454658 -154.79882812 27.92626953 C-154.20618164 27.51731445 -153.61353516 27.10835937 -153.00292969 26.68701172 C-145.26242707 21.32614549 -137.77660582 15.64597396 -130.29882812 9.92626953 C-126.80090486 7.25686715 -123.30051397 4.59073349 -119.79882812 1.92626953 C-119.12255371 1.40935547 -118.4462793 0.89244141 -117.74951172 0.35986328 C-78.93934733 -29.13545086 -40.10682935 -24.16111045 0 0 Z " fill="#CE2575" transform="translate(695.798828125,849.07373046875)"/>
<path d="M0 0 C2.03431317 1.88177256 4.05136991 3.78099517 6.0625 5.6875 C6.56426758 6.16058594 7.06603516 6.63367188 7.58300781 7.12109375 C15.58011632 14.71191829 22.49285468 22.84131708 29.0625 31.6875 C29.49304687 32.26258301 29.92359375 32.83766602 30.3671875 33.43017578 C61.23227245 74.85252275 79.69752476 126.79060299 78.0625 178.6875 C77.7325 178.6875 77.4025 178.6875 77.0625 178.6875 C76.84207031 177.0478125 76.84207031 177.0478125 76.6171875 175.375 C70.60248084 132.96456255 54.44300906 88.64712783 19.19555664 61.79614258 C-0.18045887 47.69866146 -22.30231781 39.17114363 -45.9375 35.6875 C-46.98550781 35.49414062 -48.03351563 35.30078125 -49.11328125 35.1015625 C-97.01425982 29.91514398 -145.25808989 51.9891274 -181.8125 81.18505859 C-188.23141496 86.41626314 -194.40990873 91.92911331 -200.53125 97.50390625 C-202.18530206 99.00490479 -203.8528167 100.49115909 -205.53125 101.96484375 C-210.12758282 106.01432372 -214.35303892 110.1168632 -218.30078125 114.80078125 C-219.89365725 116.6369605 -221.56262156 118.31419033 -223.3125 120 C-227.04522535 123.67453141 -230.29136926 127.68236008 -233.5703125 131.76171875 C-235.87647396 134.61207342 -238.24544096 137.39834473 -240.625 140.1875 C-267.63342897 172.69688005 -289.55725519 209.80071062 -309.31640625 247.02734375 C-309.85330078 248.03297363 -310.39019531 249.03860352 -310.94335938 250.07470703 C-311.95336176 251.97273848 -312.95395686 253.8758173 -313.94335938 255.78466797 C-317.00250644 261.52981579 -319.66689263 265.2654968 -325.8125 267.9375 C-332.43758794 269.52752111 -337.95116963 268.82255338 -343.9375 265.6875 C-346.62182612 263.26294738 -347.76482043 260.50779533 -348.12109375 256.88110352 C-347.22729652 246.20189061 -339.69349152 234.45098906 -335.18447876 224.84533691 C-333.04348935 220.28198678 -330.91902361 215.71094728 -328.79296875 211.140625 C-328.16022285 209.78152008 -328.16022285 209.78152008 -327.51469421 208.3949585 C-321.85142639 196.2202106 -316.34406502 183.97852038 -310.9375 171.6875 C-310.62018921 170.96651123 -310.30287842 170.24552246 -309.97595215 169.50268555 C-284.34977562 116.83619476 -284.34977562 116.83619476 -285.61328125 60.01171875 C-291.82221163 44.42528881 -300.89448512 33.2590574 -315.9375 25.6875 C-341.22130042 15.67875458 -368.78275674 21.53537575 -392.98144531 32.00439453 C-416.24412908 42.42926638 -437.62462845 55.3303427 -457.9375 70.6875 C-458.54803223 71.14640625 -459.15856445 71.6053125 -459.78759766 72.078125 C-474.53001385 83.18290817 -488.74382177 95.0475848 -502.38671875 107.48046875 C-505.91894605 110.22973382 -509.65787079 110.05018044 -513.9375 109.6875 C-519.6587369 106.77079099 -522.91127774 102.76616678 -524.9375 96.6875 C-525.17578125 94.70703125 -525.17578125 94.70703125 -525.25 92.5 C-525.28738281 91.78457031 -525.32476563 91.06914063 -525.36328125 90.33203125 C-524.25495441 83.44820308 -520.11518076 78.26799227 -515.24609375 73.53515625 C-514.4280703 72.71850746 -514.4280703 72.71850746 -513.59352112 71.88536072 C-512.44427887 70.74211855 -511.29022173 69.60369777 -510.1315918 68.4699707 C-508.39326594 66.76788513 -506.67121638 65.05061527 -504.95117188 63.33007812 C-498.98390923 57.40132743 -492.89872823 51.83017689 -486.31665039 46.58520508 C-483.79631878 44.57488824 -481.37616706 42.47835495 -478.9621582 40.34326172 C-457.84811581 21.74126632 -433.40594654 5.55361776 -408.9375 -8.3125 C-408.27089355 -8.69245117 -407.60428711 -9.07240234 -406.91748047 -9.46386719 C-401.62236948 -12.47204112 -396.28865796 -15.40541702 -390.9375 -18.3125 C-390.13070801 -18.75352051 -389.32391602 -19.19454102 -388.49267578 -19.64892578 C-341.36848296 -45.30512258 -289.21612444 -62.66999269 -235.9375 -69.3125 C-235.01582031 -69.42964355 -234.09414063 -69.54678711 -233.14453125 -69.66748047 C-150.79235539 -79.66441668 -61.89500264 -56.32246221 0 0 Z " fill="#F75245" transform="translate(1227.9375,618.3125)"/>
<path d="M0 0 C0.93070313 0.44214844 1.86140625 0.88429688 2.8203125 1.33984375 C8.12361383 4.13064809 11.37043659 6.66709663 13.38671875 12.41015625 C17.50585803 29.80499283 12.63870942 47.66889248 8.48999023 64.59753418 C7.22197542 69.78526683 5.99387477 74.98242013 4.765625 80.1796875 C4.52336182 81.20364624 4.28109863 82.22760498 4.03149414 83.28259277 C0.931583 96.44899045 -1.80117373 109.64998338 -4 123 C-4.26248535 124.56935303 -4.26248535 124.56935303 -4.53027344 126.17041016 C-9.21323162 155.59886126 -10.71054529 190.05526846 -3 219 C-2.76974121 219.90911133 -2.53948242 220.81822266 -2.30224609 221.75488281 C0.35002106 232.12558536 3.32169433 242.34237168 8 252 C8.30244629 252.63325195 8.60489258 253.26650391 8.91650391 253.91894531 C20.85177637 278.62097512 39.21627593 297.88063467 65.21582031 307.84960938 C70.07343296 309.5285177 74.99495168 310.8427189 80 312 C81.54107422 312.36738281 81.54107422 312.36738281 83.11328125 312.7421875 C106.64684389 317.29304862 131.50115269 313.13628259 154.20239258 306.48754883 C159.703815 304.90127167 159.703815 304.90127167 163 306 C86.33662386 338.20718372 -3.51322747 345.80840024 -81.67871094 313.90673828 C-100.53597349 306.00436042 -118.29011014 296.15157294 -134 283 C-134.58023926 282.51982422 -135.16047852 282.03964844 -135.75830078 281.54492188 C-149.34043955 270.25231274 -162.28961334 258.09363154 -173 244 C-173.41668945 243.45972168 -173.83337891 242.91944336 -174.26269531 242.36279297 C-196.84657986 212.98397598 -222 170.15818088 -222 132 C-219.65392435 130.3668876 -217.34325354 128.92590252 -214.875 127.5 C-196.7671437 116.59543565 -182.02036139 102.09044247 -167.125 87.25 C-166.37731857 86.50647278 -166.37731857 86.50647278 -165.61453247 85.7479248 C-160.43699422 80.59139747 -155.35264489 75.39749801 -150.59619141 69.84570312 C-147.86451183 66.68701582 -144.98850346 63.66382 -142.125 60.625 C-138.31252343 56.57588696 -134.54616919 52.49711673 -130.8515625 48.33984375 C-125.70456436 42.60907541 -120.3530337 37.0966268 -114.92675781 31.6315918 C-113.81155909 30.50486438 -112.70084268 29.37368229 -111.59472656 28.23803711 C-83.14731881 -0.96308378 -39.05356199 -19.41614767 0 0 Z " fill="#74309C" transform="translate(853,960)"/>
<path d="M0 0 C0.886875 0.825 1.77375 1.65 2.6875 2.5 C6.00506213 0.99756382 8.63665404 -0.94872413 11.5 -3.1875 C34.87505123 -20.23245149 66.0702355 -23.6345804 94.12231445 -19.67993164 C97.6783707 -19.08335772 101.18381446 -18.35039286 104.6875 -17.5 C105.71858887 -17.25056641 105.71858887 -17.25056641 106.77050781 -16.99609375 C127.30665604 -11.79218946 144.70148037 -0.06150077 155.73974609 18.24511719 C167.08304905 38.24824088 168.86717485 59.92213939 168.80102539 82.46020508 C168.80074243 83.80200702 168.80090337 85.14380911 168.8014679 86.48561096 C168.80175163 90.08391391 168.79592424 93.68218267 168.78889394 97.28047776 C168.78258906 101.05740063 168.78205101 104.83432451 168.78086853 108.61125183 C168.77777606 115.74360216 168.76959111 122.87593694 168.75951904 130.00828046 C168.74829274 138.13659924 168.74283112 146.26491881 168.73782361 154.39324343 C168.72740647 171.09550613 168.70908729 187.79774743 168.6875 204.5 C151.5275 204.5 134.3675 204.5 116.6875 204.5 C116.66768066 200.55482422 116.64786133 196.60964844 116.62744141 192.54492188 C116.56033612 179.46517625 116.48279613 166.38550959 116.39997292 153.3058548 C116.35004176 145.38084301 116.30359822 137.45584057 116.265625 129.53076172 C116.23248387 122.61605333 116.19253419 115.70142192 116.14470994 108.78679895 C116.11966251 105.13211624 116.09781968 101.47748312 116.08415604 97.82273865 C117.29497655 65.58072535 117.29497655 65.58072535 104.859375 37.0234375 C103.6875 35.5 103.6875 35.5 103.6875 33.5 C103.12417969 33.2215625 102.56085937 32.943125 101.98046875 32.65625 C100.45161071 31.88530966 98.93310569 31.093487 97.42578125 30.28125 C84.49579917 23.45188748 70.9924746 22.68032678 56.796875 26.40234375 C46.29094324 30.11109604 40.30429293 36.0861753 35.51171875 45.91015625 C30.9035193 56.48387936 30.38804124 67.20536764 30.36865234 78.6003418 C30.35933191 79.98126295 30.34916017 81.36217857 30.33821106 82.74308777 C30.31113507 86.45718234 30.29582893 90.17123947 30.28278303 93.88540626 C30.26705337 97.77983328 30.24029503 101.67418494 30.2147522 105.56855774 C30.16813729 112.92760083 30.13131005 120.28665838 30.09807932 127.64577276 C30.05973508 136.03043751 30.01035753 144.41502624 29.96009517 152.79962671 C29.85703271 170.03303484 29.76914559 187.26647507 29.6875 204.5 C12.5275 204.5 -4.6325 204.5 -22.3125 204.5 C-22.3218457 200.2821875 -22.33119141 196.064375 -22.34082031 191.71875 C-22.37467555 177.74090938 -22.43007369 163.76321437 -22.49640274 149.78549194 C-22.53607455 141.3156506 -22.56852688 132.84590057 -22.58349609 124.37597656 C-22.59657451 116.98657765 -22.6236952 109.59738067 -22.66711307 102.20809555 C-22.68959 98.30183856 -22.70541906 94.39582933 -22.70438385 90.48950195 C-21.95698834 61.21996778 -21.95698834 61.21996778 -34.3125 35.5 C-42.76054709 27.12220694 -53.85216756 24.39758385 -65.4375 24.25 C-77.52592622 24.36851398 -86.99252797 26.8318063 -96.0234375 35.05859375 C-106.63507167 46.28968879 -107.60705503 61.12938466 -107.63134766 75.76220703 C-107.64066458 77.17253686 -107.65083582 78.58286125 -107.66178894 79.99317932 C-107.68890441 83.79204134 -107.70418306 87.59086667 -107.71721697 91.38979959 C-107.73292899 95.37098263 -107.75969314 99.35209161 -107.7852478 103.33322144 C-107.83189351 110.85875342 -107.86870603 118.38429956 -107.90192068 125.9099015 C-107.94024292 134.48317223 -107.98962637 143.05636832 -108.03990483 151.62957597 C-108.1430132 169.25300221 -108.23088189 186.87646023 -108.3125 204.5 C-125.4725 204.5 -142.6325 204.5 -160.3125 204.5 C-160.38048824 186.05287216 -160.43563859 167.60584737 -160.46793652 149.1586256 C-160.4833384 140.59130014 -160.50429843 132.02405864 -160.53881836 123.45678711 C-160.56892711 115.98066642 -160.58812339 108.50460659 -160.59476548 101.02842695 C-160.59864179 97.07790251 -160.60760813 93.12755206 -160.62969017 89.17708397 C-160.79283398 58.77826571 -159.71396957 28.10374591 -137.72753906 4.69995117 C-104.17940046 -29.11652686 -36.2697483 -30.69535585 0 0 Z " fill="#1E183A" transform="translate(2091.3125,893.5)"/>
<path d="M0 0 C17.16 0 34.32 0 52 0 C52.0093457 4.28363525 52.01869141 8.56727051 52.02832031 12.98071289 C52.06216201 27.17010303 52.11755236 41.35934951 52.18390274 55.54862309 C52.22359003 64.1474085 52.2560346 72.74610377 52.27099609 81.3449707 C52.28406638 88.84605997 52.31116682 96.34695002 52.35461307 103.84792703 C52.37710796 107.81395516 52.39291796 111.77973868 52.39188385 115.74583626 C52.39113006 119.49130907 52.40936363 123.23624365 52.44116783 126.98157692 C52.45353243 128.98610322 52.4466592 130.99072052 52.43885803 132.99526978 C52.59213939 146.57140491 55.25900765 160.42164069 64.625 170.80078125 C74.03008853 179.57450967 86.54017431 181.25128195 98.9453125 180.8828125 C109.62060139 179.80870746 118.83834045 176.6868226 126.4375 168.875 C136.08706718 156.93842521 137.29418199 142.58035002 137.31884766 127.82958984 C137.32816478 126.42911207 137.33833605 125.02863976 137.34928894 123.62817383 C137.37640216 119.85617053 137.39168237 116.08420418 137.40471697 112.3121295 C137.42043 108.35897339 137.44719381 104.40589184 137.4727478 100.45278931 C137.51939175 92.98038147 137.55620511 85.50795938 137.58942068 78.0354811 C137.62774418 69.52266839 137.67712729 61.00993084 137.72740483 52.49718165 C137.83051059 34.99816988 137.91838032 17.49912609 138 0 C155.16 0 172.32 0 190 0 C190.02187378 6.29698975 190.02187378 6.29698975 190.04418945 12.72119141 C190.09462597 26.62319637 190.16108913 40.52508647 190.23571491 54.42698097 C190.28055262 62.85202401 190.31999453 71.27702591 190.34643555 79.70214844 C190.36951354 87.05121576 190.40301959 94.40015158 190.44870156 101.74911439 C190.47250259 105.635147 190.49131679 109.52105043 190.49761391 113.40715408 C190.50372486 117.07621666 190.52393681 120.74494928 190.55427551 124.41388893 C190.5670545 126.37924465 190.56550237 128.34467785 190.5632782 130.31007385 C190.70614516 144.04785099 192.74304067 158.66338005 202.07421875 169.3828125 C211.56798227 178.36295182 222.24370835 180.62052222 235 181 C246.18284805 180.65413872 257.02629009 177.6158604 264.9375 169.3125 C276.63902299 154.35738282 276.11680977 135.44947018 276.20532227 117.38525391 C276.21522186 116.10549179 276.22512146 114.82572968 276.23532104 113.50718689 C276.26198455 110.04740134 276.28319875 106.58760269 276.30332303 103.12777376 C276.32542509 99.49363701 276.35269347 95.85953881 276.37937927 92.22543335 C276.42898295 85.36584798 276.4740395 78.50624084 276.51740164 71.64661348 C276.56705315 63.82779056 276.62186631 56.00900637 276.67708123 48.19022107 C276.790404 32.1268487 276.89666715 16.06344022 277 0 C293.83 0 310.66 0 328 0 C328.06794174 18.87282058 328.12311191 37.74554084 328.15543652 56.61845303 C328.17084994 65.38313133 328.19183266 74.14772778 328.22631836 82.91235352 C328.25639112 90.55912001 328.27561505 98.20582718 328.28226548 105.85265118 C328.28614774 109.89477173 328.2951536 113.93672265 328.31719017 117.97878838 C328.47645084 148.38302583 326.81425162 178.37599251 304.47363281 201.55419922 C285.52918205 220.14085221 259.16940867 225.70315796 233.5 226.25 C207.87960144 225.73371993 185.12665529 219.40084977 165 203 C161.91925397 204.4288528 159.3437096 206.16006639 156.625 208.1875 C130.95177242 226.28316702 99.27078906 228.68131539 69 224 C52.90816864 221.07039291 38.41381736 214.59949021 26 204 C25.34773438 203.45988281 24.69546875 202.91976562 24.0234375 202.36328125 C9.48992691 189.19021343 2.35152538 167.93049339 0 149 C-0.08355027 146.83510817 -0.12208279 144.66810487 -0.12025452 142.50160217 C-0.12162918 141.23827057 -0.12300385 139.97493896 -0.12442017 138.67332458 C-0.12088197 137.29141211 -0.11724717 135.90949988 -0.11352539 134.52758789 C-0.11324303 133.05859377 -0.11340221 131.58959951 -0.1139679 130.12060547 C-0.11425396 126.14799372 -0.10838803 122.17541237 -0.10139394 118.20280766 C-0.09512868 114.04547993 -0.09455409 109.88815143 -0.09336853 105.7308197 C-0.09026456 97.86515979 -0.08206378 89.99951383 -0.07201904 82.13386005 C-0.06082888 73.17619172 -0.05534014 64.21852271 -0.05032361 55.26084912 C-0.03988037 36.84055657 -0.02154652 18.42028314 0 0 Z " fill="#1E183A" transform="translate(1452,542)"/>
<path d="M0 0 C143.04514984 0 143.04514984 0 171.1875 26.75 C185.95902275 42.10034417 191.44181057 62.14308774 191.1484375 83.03125 C190.04377265 105.12454696 182.23109102 122.80093466 165.953125 137.8984375 C155.1459989 146.87729038 142.32506653 152.06863285 129 156 C134.65864157 166.22747069 140.79187678 174.69342853 149 183 C149.96486328 184.07314453 149.96486328 184.07314453 150.94921875 185.16796875 C160.9888201 196.07868519 174.77327688 202.7777045 188 209 C182.52714688 225.2130939 176.33815107 241.11071499 170 257 C156.6245479 254.73059368 142.73620642 246.04092447 132 238 C131.4745459 237.61827637 130.9490918 237.23655273 130.40771484 236.84326172 C104.41203619 217.90085017 84.41156511 192.11476064 73 162 C73 161.01 73 160.02 73 159 C66.07 159 59.14 159 52 159 C52 180.12 52 201.24 52 223 C34.84 223 17.68 223 0 223 C0 149.41 0 75.82 0 0 Z M52 43 C52 67.75 52 92.5 52 118 C63.26125 118.061875 63.26125 118.061875 74.75 118.125 C78.26672363 118.15231201 78.26672363 118.15231201 81.85449219 118.18017578 C99.33899876 118.26085051 116.66823132 118.09091124 130.08984375 105.25390625 C137.95568414 95.9725363 138.68645686 85.7391038 138.17919922 74.08984375 C137.49946378 66.16268383 133.67126639 58.53768196 128 53 C119.44968973 46.59090883 109.37048745 42.86041244 98.65893555 42.88647461 C97.60379761 42.88659546 96.54865967 42.88671631 95.46154785 42.88684082 C93.81575745 42.89451477 93.81575745 42.89451477 92.13671875 42.90234375 C90.61093201 42.90385437 90.61093201 42.90385437 89.05432129 42.90539551 C85.26536934 42.91061581 81.4764335 42.92457707 77.6875 42.9375 C64.9721875 42.9684375 64.9721875 42.9684375 52 43 Z " fill="#1E183A" transform="translate(2098,542)"/>
<path d="M0 0 C159.79852848 0 159.79852848 0 195.3125 34.9375 C216.71344508 56.69336428 224.55041213 85.22253953 224.35131836 115.04760742 C224.16512704 124.29424481 223.39108507 133.05942106 221 142 C220.70996094 143.08667969 220.70996094 143.08667969 220.4140625 144.1953125 C215.60260887 161.48090516 207.37182166 176.02692273 195 189 C194.17113281 189.87140625 193.34226562 190.7428125 192.48828125 191.640625 C178.30162449 205.45795072 160.32814022 213.61780602 141.4375 218.75 C140.70668213 218.94899902 139.97586426 219.14799805 139.22290039 219.35302734 C123.1482112 223.45937816 107.30053986 223.26519703 90.8203125 223.1953125 C88.49145605 223.19236651 86.16259828 223.1903295 83.83374023 223.18920898 C75.26413977 223.17878608 66.69456778 223.15086366 58.125 223.125 C38.94375 223.08375 19.7625 223.0425 0 223 C0 149.41 0 75.82 0 0 Z M53 44 C53 88.88 53 133.76 53 180 C94.74222369 182.83837946 94.74222369 182.83837946 136.5 172.25 C137.15033203 171.90493408 137.80066406 171.55986816 138.47070312 171.2043457 C153.57312274 162.94638165 163.71145375 150.18771952 168.76660156 133.71557617 C174.30044954 113.79025861 171.82360719 92.496516 162.10546875 74.32421875 C150.54529789 56.07244621 133.62684557 48.76004128 113 44 C93.2 44 73.4 44 53 44 Z " fill="#1E183A" transform="translate(2525,542)"/>
<path d="M0 0 C21.87522941 19.01911637 31.68301054 44.30743115 34.01085663 72.79271698 C34.63545618 83.02848282 34.43301375 93.31121534 34.39028788 103.56144381 C34.37760498 107.12879425 34.37659643 110.69614977 34.37423706 114.26351929 C34.36807301 120.98844394 34.35173255 127.71330192 34.33153808 134.43819749 C34.309019 142.10714154 34.29814581 149.77608912 34.28814721 157.44505811 C34.26736048 173.19258368 34.23074952 188.94001766 34.1875 204.6875 C17.0275 204.6875 -0.1325 204.6875 -17.8125 204.6875 C-17.8125 185.2175 -17.8125 165.7475 -17.8125 145.6875 C-49.32963734 149.18940415 -73.48340384 158.43723419 -96.8125 179.6875 C-97.48667969 180.29078125 -98.16085938 180.8940625 -98.85546875 181.515625 C-104.85200518 187.16911014 -110.86704858 194.30181796 -114.20922852 201.83618164 C-117.21274206 205.12587823 -117.78922078 205.13614372 -122.04003906 205.36865234 C-124.21963193 205.36770328 -126.3993694 205.33385261 -128.578125 205.2734375 C-129.72665955 205.26494781 -130.87519409 205.25645813 -132.05853271 205.24771118 C-135.72747534 205.21412012 -139.39422151 205.13882247 -143.0625 205.0625 C-145.54944743 205.03240813 -148.03642931 205.00503099 -150.5234375 204.98046875 C-156.62054128 204.91430981 -162.71636374 204.81390172 -168.8125 204.6875 C-168.85955585 188.9171455 -168.89465125 173.14681045 -168.91612434 157.37640285 C-168.92636679 150.05128548 -168.94028963 142.72621213 -168.96337891 135.40112305 C-168.98353131 129.00462229 -168.99626726 122.60815345 -169.00067699 116.21162182 C-169.0032481 112.83555013 -169.01024562 109.45964098 -169.02396011 106.08358574 C-169.07358715 93.3446942 -169.01417981 80.67328483 -167.93310547 67.97290039 C-167.85644213 67.07186553 -167.77977879 66.17083067 -167.70079231 65.24249172 C-166.20304887 49.75929406 -161.4758471 36.15178713 -153.8125 22.6875 C-153.33039062 21.83929687 -152.84828125 20.99109375 -152.3515625 20.1171875 C-140.55049965 1.08541562 -120.39892847 -11.98029153 -98.8125 -17.3125 C-65.71328279 -24.89052208 -27.37703895 -21.52428238 0 0 Z M-103.8125 36.6875 C-114.96191597 50.40985812 -117.13169927 64.45486541 -117.0078125 81.66015625 C-117.00407565 83.19428827 -117.00123186 84.72842271 -116.99923706 86.26255798 C-116.99165342 90.27219398 -116.97205115 94.28168175 -116.9498291 98.29125977 C-116.92925622 102.39402258 -116.92021103 106.49680968 -116.91015625 110.59960938 C-116.8887995 118.62897376 -116.85472838 126.65821837 -116.8125 134.6875 C-115.05522379 133.56955115 -113.29798893 132.4515373 -111.54077148 131.33349609 C-110.56220688 130.71090912 -109.58364227 130.08832214 -108.57542419 129.4468689 C-106.993572 128.43958048 -105.41247697 127.43109562 -103.83363342 126.4190979 C-77.37888442 109.54322918 -48.92101072 101.681459 -17.8125 99.6875 C-16.45020662 65.1593906 -16.45020662 65.1593906 -32.640625 35.65234375 C-43.20173228 26.09796073 -57.45958915 22.89025902 -71.43359375 23.3671875 C-83.43764231 24.50514355 -95.10948668 27.98448668 -103.8125 36.6875 Z " fill="#1E183A" transform="translate(2706.8125,893.3125)"/>
<path d="M0 0 C17.16 0 34.32 0 52 0 C52.02578125 5.300625 52.0515625 10.60125 52.078125 16.0625 C52.10333956 19.45317098 52.12970773 22.84375678 52.16015625 26.234375 C52.20820639 31.59700658 52.25235631 36.95944061 52.27099609 42.32226562 C52.28632163 46.65380687 52.32104119 50.98482544 52.36830902 55.31613159 C52.38296113 56.95518406 52.39103153 58.59431122 52.39188385 60.23342896 C52.40667591 74.43801889 53.62446924 88.97956233 62 101 C62.721875 102.051875 63.44375 103.10375 64.1875 104.1875 C73.81267721 113.81267721 85.21097636 116.27042619 98.375 116.4375 C111.64790956 116.36284134 123.93603145 113.32227281 133.99609375 104.1875 C147.57691183 89.70129405 148.09668609 70.22414964 148.31640625 51.46484375 C148.33701702 49.97554502 148.35801444 48.4862516 148.37937927 46.9969635 C148.43417482 43.10580788 148.48376879 39.21460327 148.53222656 35.32336426 C148.59166261 30.63918026 148.65765305 25.95508444 148.72252655 21.27097321 C148.81999988 14.18070334 148.90922159 7.09037296 149 0 C165.83 0 182.66 0 200 0 C200.06793302 19.39435572 200.12310691 38.7886139 200.15543652 58.18305874 C200.17085211 67.18987246 200.19183906 76.19660656 200.22631836 85.20336914 C200.25638438 93.06108647 200.27561349 100.91874609 200.28226548 108.77651936 C200.28614886 112.93042056 200.2951621 117.08415679 200.31719017 121.23800468 C200.33782844 125.16224726 200.34377979 129.08625975 200.33932304 133.01055145 C200.34013622 134.43698701 200.3459369 135.86343175 200.35761642 137.28981972 C200.46275129 150.81387846 198.78016502 164.3595664 194.3125 177.1875 C194.05831299 177.92814697 193.80412598 178.66879395 193.54223633 179.43188477 C185.54355599 201.70417546 169.66000737 218.35913957 148.53515625 228.6953125 C111.7356832 244.59779922 66.43796761 239.40773984 30 225 C5.67745953 214.66669063 5.67745953 214.66669063 0.78900146 207.13394165 C-0.18564909 204.49789152 0.10761983 203.58385564 1.11816406 200.99755859 C1.5591745 199.83648087 1.5591745 199.83648087 2.00909424 198.65194702 C2.50732697 197.41270981 2.50732697 197.41270981 3.015625 196.1484375 C3.51216583 194.86557358 3.51216583 194.86557358 4.01873779 193.55679321 C4.72127831 191.75021627 5.43121451 189.94650054 6.14794922 188.14550781 C7.24630187 185.38429693 8.32227335 182.61518483 9.39453125 179.84375 C10.07943643 178.09064024 10.76559246 176.33801854 11.453125 174.5859375 C11.93921234 173.34062759 11.93921234 173.34062759 12.43511963 172.07015991 C12.89504303 170.91853867 12.89504303 170.91853867 13.36425781 169.74365234 C13.63232239 169.06732758 13.90038696 168.39100281 14.17657471 167.69418335 C15 166 15 166 17 164 C17.53625 164.40089844 18.0725 164.80179688 18.625 165.21484375 C39.01475395 180.00412252 64.45758517 191.86368367 90 193 C90.75925781 193.03996094 91.51851562 193.07992188 92.30078125 193.12109375 C106.69272246 193.51130587 121.78788352 190.49207588 133 181 C144.91776038 168.91404543 147.1256561 153.17536216 148 137 C147.55011719 137.49628906 147.10023438 137.99257813 146.63671875 138.50390625 C132.92096833 152.98927794 113.90957311 160.62806853 94.11328125 161.23828125 C69.31608681 161.64386418 47.90066362 158.91383034 28 143 C26.453125 141.88625 26.453125 141.88625 24.875 140.75 C7.57428815 124.20149302 0.4914048 99.95179067 -0.17555237 76.53140259 C-0.25368101 71.62621966 -0.2258165 66.7218966 -0.1953125 61.81640625 C-0.19157159 60.02180643 -0.18872973 58.22720454 -0.18673706 56.43260193 C-0.17918532 51.76217782 -0.15961199 47.09188273 -0.1373291 42.42150879 C-0.11304164 36.78946345 -0.10404932 31.15737441 -0.09242249 25.52529144 C-0.0731807 17.01677187 -0.03479973 8.50853407 0 0 Z " fill="#1E183A" transform="translate(1691,876)"/>
<path d="M0 0 C0.63502441 0.16097168 1.27004883 0.32194336 1.92431641 0.48779297 C22.88082099 5.89441534 40.30289435 16.22306951 56 31 C56.60328125 31.53882813 57.2065625 32.07765625 57.828125 32.6328125 C76.42766742 49.92864867 87.06233721 77.47428696 88.10498047 102.52197266 C89.06313188 136.00966191 80.41557328 165.59811917 57.14135742 190.30761719 C35.33665609 212.74219863 4.80842997 224.7402239 -26.22492981 225.32240295 C-54.19738868 225.69100779 -54.19738868 225.69100779 -67 222 C-67.81678223 221.76893555 -68.63356445 221.53787109 -69.47509766 221.29980469 C-99.40552823 212.59496024 -125.59877221 194.92902299 -140.8737793 167.14331055 C-155.88017938 138.79863705 -158.57217927 106.79110619 -150 76 C-141.31269771 47.82697076 -121.77621839 25.1534583 -96.11914062 10.95947266 C-86.84023839 6.0975821 -77.11895158 2.64588348 -67 0 C-65.20369141 -0.48146484 -65.20369141 -0.48146484 -63.37109375 -0.97265625 C-43.70251121 -5.30983086 -19.45387973 -5.19471167 0 0 Z M-85.125 63.1875 C-98.31207735 78.68625625 -103.33460668 97.91734711 -102 118 C-99.83464707 136.41459801 -92.65122 153.94114299 -78 166 C-60.88031708 178.37761112 -42.13053235 183.28998826 -21.23046875 180.49609375 C-9.01834998 178.13984151 1.18408082 173.60436027 11 166 C11.83917969 165.35933594 12.67835938 164.71867187 13.54296875 164.05859375 C25.69571944 153.87655939 33.00600052 137.53289582 35 122 C36.66792543 102.58345009 34.23488443 82.21545958 21.34765625 66.671875 C18.69475035 63.64162403 15.8816082 60.81269082 13 58 C12.41605469 57.39542969 11.83210938 56.79085937 11.23046875 56.16796875 C-1.20485498 44.23635433 -20.13707875 40.49763736 -36.71484375 40.796875 C-55.47788401 41.48883331 -72.28548135 49.61568941 -85.125 63.1875 Z " fill="#1E183A" transform="translate(1972,543)"/>
<path d="M0 0 C7.90377404 6.84822115 7.90377404 6.84822115 10.3359375 10.828125 C9.94811381 14.18210512 8.76701858 15.73155329 6.30859375 17.96484375 C5.685896 18.5379126 5.06319824 19.11098145 4.42163086 19.70141602 C3.75397705 20.30010498 3.08632324 20.89879395 2.3984375 21.515625 C1.71982666 22.1355835 1.04121582 22.75554199 0.34204102 23.39428711 C-1.6529887 25.21347248 -3.65769306 27.02146602 -5.6640625 28.828125 C-6.66732267 29.74146744 -7.6700069 30.65544328 -8.671875 31.5703125 C-12.91989624 35.42860702 -17.21735096 39.20054453 -21.6640625 42.828125 C-24.61606637 41.51682714 -26.42273788 40.18509882 -28.5390625 37.765625 C-40.67274277 25.37323087 -57.53980704 18.86037291 -74.6640625 17.828125 C-95.26754622 17.66346179 -113.71298343 23.8339126 -128.9375 37.93359375 C-141.80047527 51.03802419 -147.40425686 68.78543858 -147.9140625 86.828125 C-147.74623177 102.92122743 -143.35758812 117.86146086 -133.6640625 130.828125 C-133.26058594 131.41980469 -132.85710937 132.01148438 -132.44140625 132.62109375 C-123.08834791 145.12044083 -105.49796116 151.54721592 -90.6640625 153.828125 C-86.69276846 154.12900859 -82.73158075 154.19820764 -78.75 154.2421875 C-77.29074097 154.26865356 -77.29074097 154.26865356 -75.80200195 154.2956543 C-72.21451463 154.3580819 -68.62676626 154.40470764 -65.0390625 154.453125 C-56.9953125 154.576875 -48.9515625 154.700625 -40.6640625 154.828125 C-40.6640625 132.388125 -40.6640625 109.948125 -40.6640625 86.828125 C-23.8340625 86.828125 -7.0040625 86.828125 10.3359375 86.828125 C10.3359375 123.458125 10.3359375 160.088125 10.3359375 197.828125 C-15.31125 197.9209375 -15.31125 197.9209375 -41.4765625 198.015625 C-49.51801636 198.05659302 -49.51801636 198.05659302 -57.72192383 198.09838867 C-64.36462402 198.11193848 -64.36462402 198.11193848 -67.4929657 198.11445618 C-69.63714985 198.11900592 -71.78132726 198.12943567 -73.92546082 198.14485168 C-91.12905243 198.2621548 -107.96723361 197.41374899 -124.5390625 192.328125 C-125.34657959 192.08167236 -126.15409668 191.83521973 -126.98608398 191.58129883 C-141.49784364 186.85650745 -155.59920581 179.40956563 -166.6640625 168.828125 C-167.60507813 167.95285156 -168.54609375 167.07757812 -169.515625 166.17578125 C-189.51583357 147.18548088 -199.92685219 121.09221549 -200.94921875 93.7578125 C-201.58850788 63.90301018 -194.71745956 34.1534284 -173.6640625 11.828125 C-173.19661621 11.31588379 -172.72916992 10.80364258 -172.24755859 10.27587891 C-128.80227962 -37.1330263 -49.13166798 -40.0545563 0 0 Z " fill="#1E183A" transform="translate(1645.6640625,900.171875)"/>
<path d="M0 0 C16.20961949 15.14378149 23.50467347 36.75285926 25.1640625 58.5390625 C25.30110263 63.2862654 25.29058 68.03065081 25.27758789 72.77954102 C25.27730534 74.19956968 25.27746508 75.61959849 25.2780304 77.03962708 C25.27831572 80.86956348 25.27246199 84.69946817 25.26545644 88.52939725 C25.25917862 92.54123855 25.25861561 96.55308069 25.25743103 100.56492615 C25.25433072 108.15073358 25.24613495 115.7365265 25.23608154 123.32232755 C25.22487991 131.96324047 25.21939977 140.60415411 25.21438611 149.24507248 C25.20395118 167.00974571 25.18562196 184.77439905 25.1640625 202.5390625 C8.3340625 202.5390625 -8.4959375 202.5390625 -25.8359375 202.5390625 C-25.85575684 198.65447266 -25.87557617 194.76988281 -25.89599609 190.76757812 C-25.9631072 177.88740137 -26.04064713 165.00730474 -26.12346458 152.12722015 C-26.17339152 144.32327698 -26.21983504 136.51934327 -26.2578125 128.71533203 C-26.29095811 121.90609828 -26.33091007 115.09694262 -26.37872756 108.28779554 C-26.40377066 104.68900425 -26.42561464 101.09026326 -26.43928146 97.4914093 C-25.55656481 63.22146492 -25.55656481 63.22146492 -40.61328125 33.6015625 C-50.5015413 24.21883722 -63.52309121 20.98369744 -76.8828125 21.2890625 C-88.25956344 22.25217369 -100.51924166 25.22236666 -108.8359375 33.5390625 C-120.42099164 47.66330658 -122.16800786 63.6532043 -122.06298828 81.4074707 C-122.06328033 82.72610107 -122.06357239 84.04473145 -122.06387329 85.40332031 C-122.0644407 88.97480711 -122.05278712 92.54615606 -122.03872538 96.11761117 C-122.02611447 99.86650129 -122.02503944 103.61539553 -122.02267456 107.36430359 C-122.01648994 114.44355257 -122.00012054 121.52273884 -121.97997558 128.60196036 C-121.95752193 136.6698141 -121.94659949 144.73767104 -121.93658471 152.80554831 C-121.91575117 169.38342874 -121.87911328 185.96122292 -121.8359375 202.5390625 C-138.9959375 202.5390625 -156.1559375 202.5390625 -173.8359375 202.5390625 C-173.90392314 183.96155088 -173.9590746 165.38414156 -173.99137402 146.80653667 C-174.00677654 138.17867738 -174.02773785 129.55090145 -174.06225586 120.9230957 C-174.0923626 113.3942373 -174.11156042 105.86543934 -174.11820298 98.3365224 C-174.12207962 94.35805284 -174.13104818 90.37975602 -174.15312767 86.40134239 C-174.31001095 56.95695645 -173.91183536 26.49748135 -152.14453125 3.8125 C-151.38269531 3.06226563 -150.62085937 2.31203125 -149.8359375 1.5390625 C-149.12566406 0.83007812 -148.41539062 0.12109375 -147.68359375 -0.609375 C-111.48709224 -34.77677787 -36.52828387 -31.69809757 0 0 Z " fill="#1E183A" transform="translate(2473.8359375,895.4609375)"/>
<path d="M0 0 C-2.13179372 7.93695788 -5.05687523 15.50637953 -8.18847656 23.08959961 C-9.00959708 25.08583152 -9.81343998 27.08851706 -10.6171875 29.09179688 C-11.1395884 30.36500915 -11.66298853 31.63781199 -12.1875 32.91015625 C-12.88939453 34.62924194 -12.88939453 34.62924194 -13.60546875 36.38305664 C-15 39 -15 39 -18 40 C-20.54935784 38.88935886 -22.97245956 37.71280145 -25.4375 36.4375 C-48.31166166 25.14817865 -77.10345315 18.77789074 -102 27 C-109.0747216 29.91251312 -113.58822581 33.63583717 -117.3125 40.375 C-118.60188258 45.29809713 -118.55430603 49.36968815 -116.9375 54.125 C-106.69250382 69.32725239 -83.4902335 71.59636928 -67 75.5 C-11.8620191 88.5524723 -11.8620191 88.5524723 3.2109375 112.9609375 C4.28426008 114.93811067 5.16590667 116.91090514 6 119 C6.2990625 119.72832031 6.598125 120.45664062 6.90625 121.20703125 C12.09308889 136.45537707 9.9733577 154.69274324 3.375 169.0625 C-6.14943828 186.94416599 -22.39360902 198.19515131 -41.48120117 204.16015625 C-48.56257647 206.25393016 -55.67312245 208.01545083 -63 209 C-63.78375 209.11085938 -64.5675 209.22171875 -65.375 209.3359375 C-100.79071674 213.43087975 -143.89160909 207.50749686 -173.41015625 186.265625 C-173.93480469 185.84796875 -174.45945312 185.4303125 -175 185 C-174.3466314 180.77682704 -172.92143149 177.26509185 -171.1640625 173.37890625 C-170.88404388 172.75652573 -170.60402527 172.1341452 -170.31552124 171.49290466 C-169.42350886 169.51388104 -168.52423135 167.53825214 -167.625 165.5625 C-167.02819757 164.23913435 -166.4318391 162.9155684 -165.8359375 161.59179688 C-163.31641334 156.01187696 -160.7677249 150.46250602 -158 145 C-153.96424384 146.46687078 -150.53044789 148.44578557 -146.875 150.6875 C-122.69547031 164.87785336 -90.8869517 171.28552748 -63.3515625 164.9765625 C-55.68791693 162.74356554 -49.27019444 159.93906596 -45 153 C-42.82104915 147.24209606 -42.55216431 142.78579345 -45 137 C-54.33550286 123.45395143 -76.95565983 120.70127614 -91.796875 117.09375 C-148.93076334 103.19118604 -148.93076334 103.19118604 -164 80 C-172.42734031 63.98162032 -173.030753 46.23300494 -168 29 C-160.8717847 11.08517318 -148.4619249 -1.750344 -131.00952148 -9.65771484 C-91.30101398 -26.39989811 -36.76293564 -23.04646155 0 0 Z " fill="#1E183A" transform="translate(3711,892)"/>
<path d="M0 0 C-0.61717106 5.09776321 -2.18160009 9.33950998 -4.16015625 14.0234375 C-4.62415077 15.14270126 -4.62415077 15.14270126 -5.09751892 16.28457642 C-6.07993345 18.65056311 -7.07106181 21.01278239 -8.0625 23.375 C-8.73300211 24.98543563 -9.40293014 26.5961104 -10.07226562 28.20703125 C-11.70821278 32.14081959 -13.35198102 36.07125461 -15 40 C-19.69442485 39.18366592 -23.5237397 37.37475672 -27.75 35.25 C-49.76813999 24.5662741 -76.72637829 19.39375731 -100.59375 26.73828125 C-106.7330392 29.01235282 -111.87750503 31.77543911 -115.5 37.375 C-117.79809674 42.92873379 -118.78005429 47.35274473 -116.9375 53.1875 C-113.91910608 60.13524455 -107.56032383 63.04642157 -101 66 C-98.22380948 67.05286166 -95.41185299 67.91775425 -92.5625 68.75 C-91.31557373 69.12125 -91.31557373 69.12125 -90.04345703 69.5 C-82.27493432 71.75070638 -74.41842297 73.61803769 -66.55114746 75.48379517 C-23.0698139 85.79802018 -23.0698139 85.79802018 -7 100 C-6.38769531 100.49628906 -5.77539062 100.99257813 -5.14453125 101.50390625 C4.3229056 109.84277447 9.08627916 123.72048332 10 136 C10.98762056 153.68738644 5.3698417 169.39321411 -5.734375 183.1484375 C-24.21410094 203.12865401 -52.84033769 209.20426068 -78.9296875 210.22265625 C-109.76058174 210.98669147 -148.04058838 205.91710625 -173 186 C-173.66 185.01 -174.32 184.02 -175 183 C-174.59512329 181.1966095 -174.59512329 181.1966095 -173.66650391 179.17114258 C-173.32600006 178.4105806 -172.98549622 177.65001862 -172.63467407 176.8664093 C-172.06140884 175.64282967 -172.06140884 175.64282967 -171.4765625 174.39453125 C-171.09639984 173.55532639 -170.71623718 172.71612152 -170.32455444 171.85148621 C-169.10427937 169.16571548 -167.86495267 166.48923465 -166.625 163.8125 C-165.79560767 161.99602083 -164.96746614 160.17896999 -164.140625 158.36132812 C-162.10821811 153.90078291 -160.05867927 149.44847699 -158 145 C-154.85992378 146.20654182 -151.91593812 147.51744109 -148.98828125 149.171875 C-133.96287203 157.48734682 -118.9467539 163.05464978 -102 166 C-101.26394531 166.13148438 -100.52789063 166.26296875 -99.76953125 166.3984375 C-84.40858191 168.59710336 -64.46124485 168.63551557 -51 160 C-45.7939706 155.71948693 -43.33273423 151.16097521 -42.625 144.4375 C-43.19787182 139.18617501 -45.02581467 135.68589037 -48.75 132 C-61.37781468 122.20142316 -79.74707839 119.88644173 -94.8828125 116.32543945 C-117.94854882 110.86792148 -139.7764825 105.1927062 -157 88 C-157.58652344 87.42507813 -158.17304688 86.85015625 -158.77734375 86.2578125 C-169.63442493 74.7100773 -170.57216368 59.70129522 -170.3125 44.7265625 C-169.62983859 27.34714076 -161.31550322 13.75953659 -149 2 C-109.75466571 -30.83668717 -41.7231336 -24.445477 0 0 Z " fill="#1E183A" transform="translate(2951,892)"/>
<path d="M0 0 C0.89976562 0.76828125 1.79953125 1.5365625 2.7265625 2.328125 C6.92179511 5.97930728 10.31612214 9.07236573 13 14 C8.64360654 18.46066883 4.22087842 22.74718371 -0.51953125 26.796875 C-2.62340898 28.66551601 -4.66533685 30.57199056 -6.69921875 32.515625 C-7.69683228 33.46477783 -7.69683228 33.46477783 -8.71459961 34.43310547 C-10.05574718 35.71264101 -11.39135933 36.99800754 -12.72094727 38.28955078 C-13.34412842 38.8823584 -13.96730957 39.47516602 -14.609375 40.0859375 C-15.16592773 40.6226709 -15.72248047 41.1594043 -16.29589844 41.71240234 C-18.23166049 43.17503975 -19.58979815 43.74295674 -22 44 C-24.12109375 42.19140625 -24.12109375 42.19140625 -26.4375 39.5625 C-38.72327553 26.71909777 -55.36184435 20.06322574 -73 19 C-92.96897555 18.84040779 -112.28748574 24.54729133 -126.85546875 38.65625 C-140.95356757 54.06400827 -146.07767717 73.41463381 -145.37890625 93.87890625 C-144.35469404 111.11713624 -137.38823083 127.79975446 -125 140 C-117.40561884 146.24903508 -109.34123384 150.81548846 -100 154 C-99.13890625 154.31839844 -98.2778125 154.63679688 -97.390625 154.96484375 C-79.49212419 160.57752392 -58.8659699 157.81703842 -42.375 149.5 C-36.13505654 146.16941794 -31.09267287 141.86573962 -26.12255859 136.86132812 C-24.79313055 135.52803921 -23.40074495 134.25815414 -22 133 C-17.75470896 133 -16.02086817 135.45361968 -13.125 138.25 C-11.95978386 139.35041762 -10.79441476 140.4506733 -9.62890625 141.55078125 C-8.73196045 142.40470459 -8.73196045 142.40470459 -7.81689453 143.27587891 C-4.92267035 146.02231954 -1.99314712 148.73005069 0.9375 151.4375 C1.45618652 151.92057617 1.97487305 152.40365234 2.50927734 152.90136719 C5.91292507 156.05650155 9.41307966 159.05455573 13 162 C6.84081791 177.36129342 -13.93225317 187.48750965 -28 194 C-37.95963115 198.22410456 -48.36461245 200.36114179 -59 202 C-59.845625 202.13277344 -60.69125 202.26554687 -61.5625 202.40234375 C-94.1541358 206.53288093 -128.79829223 199.02766081 -155.28466797 179.33398438 C-179.89244053 160.19694064 -194.81415013 133.83084538 -198.68359375 102.91015625 C-201.27859522 70.84106403 -194.49140341 39.48195667 -173.359375 14.55859375 C-153.31038454 -8.42861083 -125.64248154 -22.51785793 -95.18359375 -25.75390625 C-61.33165953 -28.06372331 -26.27018757 -23.2155146 0 0 Z " fill="#1E183A" transform="translate(3501,899)"/>
<path d="M0 0 C-2.3864535 7.41099334 -5.09850887 14.6857295 -7.87109375 21.95922852 C-8.63243383 23.95700658 -9.39062973 25.95595783 -10.1484375 27.95507812 C-13.85669723 37.71339447 -13.85669723 37.71339447 -15 40 C-18.18507084 38.81938311 -21.20737872 37.42213388 -24.23828125 35.8984375 C-33.79562526 31.12071818 -43.35094795 26.93079345 -53.5 23.5625 C-54.45302002 23.24522949 -55.40604004 22.92795898 -56.38793945 22.60107422 C-63.5603759 20.29624471 -70.6010176 18.70745748 -78 17 C-78 77.06 -78 137.12 -78 199 C-95.16 199 -112.32 199 -130 199 C-130 138.94 -130 78.88 -130 17 C-151.26033083 22.31508271 -169.99583818 27.7659068 -188.82421875 38.3125 C-192 40 -192 40 -194 40 C-196.02619947 34.8092184 -198.03790796 29.61314217 -200.03637695 24.41162109 C-200.7182887 22.64283646 -201.4041393 20.87556513 -202.09399414 19.10986328 C-203.08477995 16.57191085 -204.06128364 14.02885736 -205.03515625 11.484375 C-205.34655045 10.69569031 -205.65794464 9.90700562 -205.97877502 9.09442139 C-206.25914108 8.35395569 -206.53950714 7.61348999 -206.82836914 6.85058594 C-207.07929825 6.20216736 -207.33022736 5.55374878 -207.58876038 4.88568115 C-208.09330582 2.57215933 -207.83722157 1.20299753 -207 -1 C-204.92480469 -2.44458008 -204.92480469 -2.44458008 -202.171875 -3.76953125 C-201.15536865 -4.26251709 -200.1388623 -4.75550293 -199.09155273 -5.26342773 C-197.98884033 -5.77462158 -196.88612793 -6.28581543 -195.75 -6.8125 C-194.61699463 -7.34367432 -193.48398926 -7.87484863 -192.31665039 -8.42211914 C-133.19853989 -35.58919591 -56.0632588 -35.22065563 0 0 Z " fill="#1E183A" transform="translate(3187,900)"/>
<path d="M0 0 C17.16 0 34.32 0 52 0 C52 59.07 52 118.14 52 179 C88.63 179 125.26 179 163 179 C163 193.19 163 207.38 163 222 C109.21 222 55.42 222 0 222 C0 148.74 0 75.48 0 0 Z " fill="#1E183A" transform="translate(2329,543)"/>
<path d="M0 0 C17.16 0 34.32 0 52 0 C52 73.59 52 147.18 52 223 C34.84 223 17.68 223 0 223 C0 149.41 0 75.82 0 0 Z " fill="#1E183A" transform="translate(3216,876)"/>
<path d="M0 0 C8.86834811 8.07002323 13.35580386 18.53625381 14.25390625 30.3359375 C14.93074618 51.16514055 6.81061886 69.56996083 -7 85 C-18.71374272 97.27071117 -35.74741836 108.76093215 -53.37890625 109.23828125 C-65.80249496 109.50235753 -75.75618109 108.8048144 -86 101 C-86.825 100.443125 -87.65 99.88625 -88.5 99.3125 C-96.57734644 91.84095454 -100.43411625 81.61623868 -101.23828125 70.79296875 C-101.65353632 50.62031433 -94.75534873 31.92990412 -81 17 C-80.28972656 16.22140625 -79.57945312 15.4428125 -78.84765625 14.640625 C-59.41172478 -5.71757387 -24.84287243 -19.32223411 0 0 Z " fill="#F95D40" transform="translate(903,677)"/>
<path d="M0 0 C-1.93232821 0.86580287 -3.87107194 1.71729941 -5.8125 2.5625 C-6.89144531 3.03816406 -7.97039063 3.51382812 -9.08203125 4.00390625 C-12 5 -12 5 -15 4 C-14 2 -14 2 -11.6015625 1.11328125 C-10.12816406 0.71689453 -10.12816406 0.71689453 -8.625 0.3125 C-7.64789062 0.04050781 -6.67078125 -0.23148438 -5.6640625 -0.51171875 C-3 -1 -3 -1 0 0 Z " fill="#992D99" transform="translate(1016,1266)"/>
</svg>
